{"glyphs":{"0":{"ha":999,"x_min":53,"x_max":914,"o":"m 499 972 q 740 890 642 972 q 882 676 838 808 q 913 485 913 582 q 882 293 913 386 q 741 81 839 161 q 499 0 643 0 q 258 82 356 0 q 115 296 160 164 q 115 679 53 488 q 256 892 158 811 q 499 972 354 972 m 757 485 q 735 626 757 557 q 645 763 706 711 q 499 815 585 815 q 351 765 411 815 q 263 629 290 714 q 240 488 240 561 q 264 346 240 415 q 352 209 292 261 q 499 157 413 157 q 647 208 586 157 q 735 343 707 258 q 757 485 757 411 z "},"1":{"ha":485,"x_min":67,"x_max":388,"o":"m 229 815 l 144 815 q 90 838 113 815 q 67 894 67 861 q 90 949 67 926 q 144 972 113 972 l 308 972 q 363 949 340 972 q 386 894 386 926 l 386 78 q 363 23 386 46 q 308 0 340 0 q 252 23 275 0 q 229 78 229 46 l 229 815 z "},"2":{"ha":981,"x_min":64,"x_max":894,"o":"m 611 815 l 163 815 q 108 838 131 815 q 85 894 85 861 q 108 949 85 926 q 163 972 131 972 l 611 972 q 812 890 729 972 q 894 690 894 807 q 812 491 894 574 q 611 408 729 408 l 367 408 q 299 390 331 410 q 254 338 268 371 q 254 228 233 282 q 299 174 268 193 q 367 157 331 154 l 815 157 q 872 134 849 157 q 894 78 894 111 q 872 23 894 46 q 815 0 849 0 l 367 0 q 206 47 271 0 q 110 169 140 94 q 110 394 64 282 q 206 517 140 471 q 367 564 271 564 l 611 564 q 701 601 664 564 q 738 690 738 638 q 701 778 738 742 q 611 815 664 815 z "},"3":{"ha":975,"x_min":75,"x_max":896,"o":"m 601 815 l 153 815 q 98 838 121 815 q 75 894 75 861 q 98 949 75 926 q 153 972 121 972 l 601 972 q 759 925 688 972 q 863 799 831 878 q 879 635 896 719 q 801 490 863 551 q 797 486 799 488 q 801 482 799 485 q 878 337 861 421 q 862 174 894 253 q 758 48 829 96 q 601 0 688 0 l 153 0 q 98 23 121 0 q 75 78 75 46 q 98 134 75 111 q 153 157 121 157 l 601 157 q 691 194 654 157 q 728 283 728 231 q 691 372 728 335 q 601 408 654 408 l 399 408 q 342 431 365 408 q 319 486 319 454 q 342 541 319 518 q 399 564 365 564 l 601 564 q 691 601 654 564 q 728 690 728 638 q 691 778 728 742 q 601 815 654 815 z "},"4":{"ha":994,"x_min":86,"x_max":897,"o":"m 740 401 l 740 894 q 763 949 740 926 q 819 972 786 972 q 874 949 851 972 q 897 894 897 926 l 897 78 q 874 23 897 46 q 819 0 851 0 q 763 23 786 0 q 740 78 740 46 l 740 244 l 329 244 q 158 315 229 244 q 88 486 88 386 l 88 894 q 110 949 88 926 q 166 972 133 972 q 222 949 199 972 q 244 894 244 926 l 244 486 q 269 426 244 451 q 329 401 294 401 l 740 401 z "},"5":{"ha":982,"x_min":65,"x_max":896,"o":"m 613 0 l 164 0 q 109 23 132 0 q 86 78 86 46 q 109 134 86 111 q 164 157 132 157 l 613 157 q 702 194 665 157 q 739 283 739 231 q 702 372 739 335 q 613 408 665 408 l 368 408 q 207 455 272 408 q 111 578 142 501 q 111 803 65 690 q 207 925 142 878 q 368 972 272 972 l 817 972 q 873 949 850 972 q 896 894 896 926 q 873 838 896 861 q 817 815 850 815 l 368 815 q 301 799 332 818 q 256 744 269 779 q 256 635 235 690 q 301 582 269 601 q 368 564 332 563 l 613 564 q 813 481 731 564 q 896 282 896 399 q 813 83 896 165 q 613 0 731 0 z "},"6":{"ha":976,"x_min":89,"x_max":900,"o":"m 247 242 q 272 182 247 207 q 332 157 297 157 l 617 157 q 706 194 669 157 q 743 283 743 231 q 706 372 743 335 q 617 408 669 408 l 247 408 l 247 242 m 247 568 l 247 564 l 617 564 q 817 481 735 564 q 900 282 900 399 q 817 83 900 165 q 617 0 735 0 l 332 0 q 161 71 232 0 q 90 242 90 142 l 90 568 q 209 853 90 735 q 494 972 328 972 l 658 972 q 713 949 690 972 q 736 894 736 926 q 713 838 736 861 q 658 815 690 815 l 494 815 q 319 743 392 815 q 247 568 247 671 z "},"7":{"ha":954,"x_min":75,"x_max":886,"o":"m 685 815 l 154 815 q 99 838 122 815 q 76 894 76 861 q 99 949 76 926 q 154 972 122 972 l 685 972 q 826 913 768 972 q 886 772 885 854 q 860 714 886 738 l 211 25 q 157 1 189 1 q 101 22 125 0 q 77 76 78 44 q 97 132 76 108 l 722 794 q 715 803 719 799 q 685 815 703 815 z "},"8":{"ha":985,"x_min":67,"x_max":918,"o":"m 369 972 l 614 972 q 776 925 710 972 q 872 803 842 878 q 872 578 917 690 q 813 486 851 526 q 872 394 851 446 q 872 169 917 282 q 776 47 842 94 q 614 0 710 0 l 369 0 q 208 47 274 0 q 113 169 142 94 q 113 394 67 282 q 171 486 132 446 q 113 578 132 526 q 113 803 67 690 q 208 925 142 878 q 369 972 274 972 m 614 408 l 369 408 q 302 390 333 410 q 257 338 271 371 q 257 228 236 282 q 302 174 271 193 q 369 157 333 154 l 614 157 q 682 174 651 154 q 726 228 713 193 q 726 338 747 282 q 682 390 713 371 q 614 408 651 410 m 726 744 q 682 799 713 779 q 614 815 651 818 l 369 815 q 302 799 333 818 q 257 744 271 779 q 257 635 236 690 q 302 582 271 601 q 369 564 333 563 l 614 564 q 682 582 651 563 q 726 635 713 601 q 726 744 747 690 z "},"9":{"ha":976,"x_min":76,"x_max":886,"o":"m 729 731 q 704 790 729 765 q 644 815 679 815 l 358 815 q 270 778 307 815 q 233 690 233 742 q 270 601 233 638 q 358 564 307 564 l 729 564 l 729 731 m 729 404 l 729 408 l 358 408 q 159 491 242 408 q 76 690 76 574 q 159 890 76 807 q 358 972 242 972 l 644 972 q 815 901 744 972 q 886 731 885 831 l 886 404 q 767 119 885 238 q 481 0 649 0 l 318 0 q 262 23 285 0 q 239 78 239 46 q 262 134 239 111 q 318 157 285 157 l 481 157 q 656 229 583 157 q 729 404 729 301 z "},"\u000b":{"ha":732,"x_min":69,"x_max":663,"o":"m 69 972 l 663 972 l 663 0 l 69 0 l 69 972 m 108 944 l 365 515 l 624 944 l 108 944 m 349 486 l 99 903 l 99 68 l 349 486 m 367 457 l 110 29 l 624 29 l 367 457 m 383 486 l 635 65 l 635 906 l 383 486 z "},"\f":{"ha":732,"x_min":69,"x_max":663,"o":"m 69 972 l 663 972 l 663 0 l 69 0 l 69 972 m 108 944 l 365 515 l 624 944 l 108 944 m 349 486 l 99 903 l 99 68 l 349 486 m 367 457 l 110 29 l 624 29 l 367 457 m 383 486 l 635 65 l 635 906 l 383 486 z "},"Æ":{"ha":732,"x_min":69,"x_max":663,"o":"m 69 972 l 663 972 l 663 0 l 69 0 l 69 972 m 108 944 l 365 515 l 624 944 l 108 944 m 349 486 l 99 903 l 99 68 l 349 486 m 367 457 l 110 29 l 624 29 l 367 457 m 383 486 l 635 65 l 635 906 l 383 486 z "},"Ð":{"ha":732,"x_min":69,"x_max":663,"o":"m 69 972 l 663 972 l 663 0 l 69 0 l 69 972 m 108 944 l 365 515 l 624 944 l 108 944 m 349 486 l 99 903 l 99 68 l 349 486 m 367 457 l 110 29 l 624 29 l 367 457 m 383 486 l 635 65 l 635 906 l 383 486 z "},"×":{"ha":732,"x_min":69,"x_max":663,"o":"m 69 972 l 663 972 l 663 0 l 69 0 l 69 972 m 108 944 l 365 515 l 624 944 l 108 944 m 349 486 l 99 903 l 99 68 l 349 486 m 367 457 l 110 29 l 624 29 l 367 457 m 383 486 l 635 65 l 635 906 l 383 486 z "},"Þ":{"ha":732,"x_min":69,"x_max":663,"o":"m 69 972 l 663 972 l 663 0 l 69 0 l 69 972 m 108 944 l 365 515 l 624 944 l 108 944 m 349 486 l 99 903 l 99 68 l 349 486 m 367 457 l 110 29 l 624 29 l 367 457 m 383 486 l 635 65 l 635 906 l 383 486 z "},"ß":{"ha":732,"x_min":69,"x_max":663,"o":"m 69 972 l 663 972 l 663 0 l 69 0 l 69 972 m 108 944 l 365 515 l 624 944 l 108 944 m 349 486 l 99 903 l 99 68 l 349 486 m 367 457 l 110 29 l 624 29 l 367 457 m 383 486 l 635 65 l 635 906 l 383 486 z "},"æ":{"ha":732,"x_min":69,"x_max":663,"o":"m 69 972 l 663 972 l 663 0 l 69 0 l 69 972 m 108 944 l 365 515 l 624 944 l 108 944 m 349 486 l 99 903 l 99 68 l 349 486 m 367 457 l 110 29 l 624 29 l 367 457 m 383 486 l 635 65 l 635 906 l 383 486 z "},"ð":{"ha":732,"x_min":69,"x_max":663,"o":"m 69 972 l 663 972 l 663 0 l 69 0 l 69 972 m 108 944 l 365 515 l 624 944 l 108 944 m 349 486 l 99 903 l 99 68 l 349 486 m 367 457 l 110 29 l 624 29 l 367 457 m 383 486 l 635 65 l 635 906 l 383 486 z "},"÷":{"ha":732,"x_min":69,"x_max":663,"o":"m 69 972 l 663 972 l 663 0 l 69 0 l 69 972 m 108 944 l 365 515 l 624 944 l 108 944 m 349 486 l 99 903 l 99 68 l 349 486 m 367 457 l 110 29 l 624 29 l 367 457 m 383 486 l 635 65 l 635 906 l 383 486 z "},"þ":{"ha":732,"x_min":69,"x_max":663,"o":"m 69 972 l 663 972 l 663 0 l 69 0 l 69 972 m 108 944 l 365 515 l 624 944 l 108 944 m 349 486 l 99 903 l 99 68 l 349 486 m 367 457 l 110 29 l 624 29 l 367 457 m 383 486 l 635 65 l 635 906 l 383 486 z "},"‚":{"ha":732,"x_min":69,"x_max":663,"o":"m 69 972 l 663 972 l 663 0 l 69 0 l 69 972 m 108 944 l 365 515 l 624 944 l 108 944 m 349 486 l 99 903 l 99 68 l 349 486 m 367 457 l 110 29 l 624 29 l 367 457 m 383 486 l 635 65 l 635 906 l 383 486 z "},"‛":{"ha":732,"x_min":69,"x_max":663,"o":"m 69 972 l 663 972 l 663 0 l 69 0 l 69 972 m 108 944 l 365 515 l 624 944 l 108 944 m 349 486 l 99 903 l 99 68 l 349 486 m 367 457 l 110 29 l 624 29 l 367 457 m 383 486 l 635 65 l 635 906 l 383 486 z "},"\u0000":{"ha":0,"x_min":0,"x_max":0,"o":""},"\n":{"ha":0,"x_min":0,"x_max":0,"o":""},"\r":{"ha":0,"x_min":0,"x_max":0,"o":""}," ":{"ha":471,"x_min":0,"x_max":0,"o":""},"!":{"ha":347,"x_min":90,"x_max":256,"o":"m 215 203 q 206 195 215 203 q 173 186 197 186 q 131 203 149 186 q 114 244 114 221 l 114 979 q 131 1020 114 1003 q 173 1038 149 1038 q 215 1020 197 1038 q 232 979 232 1003 l 232 244 q 215 203 232 221 m 231 24 q 219 12 231 24 q 173 0 207 0 q 115 24 139 0 q 92 81 92 47 q 115 139 92 115 q 173 163 139 163 q 231 139 207 163 q 254 81 254 115 q 231 24 254 47 z "},"\"":{"ha":561,"x_min":54,"x_max":501,"o":"m 186 932 q 240 913 217 932 q 267 863 263 893 q 256 808 272 833 q 212 773 240 782 q 156 775 183 764 q 114 813 128 786 q 110 811 113 811 q 81 819 94 810 q 67 846 68 829 q 100 983 54 936 q 225 1026 142 1026 q 260 1006 249 1026 q 259 967 271 986 q 225 947 247 947 q 157 929 175 949 q 153 925 154 926 q 186 932 169 932 m 415 932 q 467 913 444 932 q 495 863 490 893 q 485 808 500 833 q 441 773 469 782 q 385 775 413 764 q 343 813 357 786 q 339 811 340 811 q 310 819 322 810 q 294 846 297 829 q 329 983 283 936 q 454 1026 371 1026 q 488 1006 476 1026 q 488 967 500 986 q 453 947 476 947 q 385 929 404 949 q 381 925 383 926 q 415 932 397 932 z "},"“":{"ha":561,"x_min":54,"x_max":501,"o":"m 186 932 q 240 913 217 932 q 267 863 263 893 q 256 808 272 833 q 212 773 240 782 q 156 775 183 764 q 114 813 128 786 q 110 811 113 811 q 81 819 94 810 q 67 846 68 829 q 100 983 54 936 q 225 1026 142 1026 q 260 1006 249 1026 q 259 967 271 986 q 225 947 247 947 q 157 929 175 949 q 153 925 154 926 q 186 932 169 932 m 415 932 q 467 913 444 932 q 495 863 490 893 q 485 808 500 833 q 441 773 469 782 q 385 775 413 764 q 343 813 357 786 q 339 811 340 811 q 310 819 322 810 q 294 846 297 829 q 329 983 283 936 q 454 1026 371 1026 q 488 1006 476 1026 q 488 967 500 986 q 453 947 476 947 q 385 929 404 949 q 381 925 383 926 q 415 932 397 932 z "},"”":{"ha":561,"x_min":54,"x_max":501,"o":"m 186 932 q 240 913 217 932 q 267 863 263 893 q 256 808 272 833 q 212 773 240 782 q 156 775 183 764 q 114 813 128 786 q 110 811 113 811 q 81 819 94 810 q 67 846 68 829 q 100 983 54 936 q 225 1026 142 1026 q 260 1006 249 1026 q 259 967 271 986 q 225 947 247 947 q 157 929 175 949 q 153 925 154 926 q 186 932 169 932 m 415 932 q 467 913 444 932 q 495 863 490 893 q 485 808 500 833 q 441 773 469 782 q 385 775 413 764 q 343 813 357 786 q 339 811 340 811 q 310 819 322 810 q 294 846 297 829 q 329 983 283 936 q 454 1026 371 1026 q 488 1006 476 1026 q 488 967 500 986 q 453 947 476 947 q 385 929 404 949 q 381 925 383 926 q 415 932 397 932 z "},"#":{"ha":851,"x_min":82,"x_max":771,"o":"m 596 426 l 711 426 q 753 409 736 426 q 771 367 771 392 q 753 326 771 343 q 711 308 736 308 l 575 308 l 525 31 q 487 -15 519 -3 q 428 -4 454 -26 q 410 51 403 18 l 456 308 l 331 308 l 279 31 q 242 -15 274 -3 q 184 -4 210 -26 q 165 51 158 18 l 211 308 l 140 308 q 99 326 117 308 q 82 367 82 343 q 99 409 82 392 q 140 426 117 426 l 233 426 l 271 635 l 140 635 q 99 652 117 635 q 82 694 82 669 q 99 735 82 718 q 140 751 117 751 l 292 751 l 328 949 q 365 994 333 982 q 424 983 397 1006 q 443 928 450 961 l 411 751 l 536 751 l 572 949 q 610 994 578 982 q 668 983 642 1006 q 688 928 694 961 l 656 751 l 711 751 q 753 735 736 751 q 771 694 771 718 q 753 652 771 669 q 711 635 736 635 l 635 635 l 596 426 m 478 426 l 515 635 l 390 635 l 351 426 l 478 426 z "},"$":{"ha":946,"x_min":68,"x_max":876,"o":"m 594 549 q 744 505 683 549 q 835 390 806 461 q 835 181 876 286 q 744 66 806 110 q 594 22 683 22 l 531 22 l 531 0 q 514 -42 531 -25 q 473 -58 497 -58 q 431 -42 449 -58 q 414 0 414 -25 l 414 22 l 350 22 q 165 100 242 24 q 88 286 88 176 q 105 327 88 310 q 147 344 122 344 q 188 327 171 344 q 206 286 206 310 q 248 183 206 225 q 350 140 290 140 l 414 140 l 414 431 l 350 431 q 200 474 261 431 q 111 589 139 518 q 111 799 69 693 q 200 913 139 869 q 350 956 261 956 l 414 956 l 414 979 q 431 1020 414 1003 q 473 1038 449 1038 q 514 1020 497 1038 q 531 979 531 1003 l 531 956 l 594 956 q 781 878 704 956 q 857 693 857 801 q 840 652 857 669 q 799 635 824 635 q 758 652 775 635 q 740 693 740 669 q 697 795 740 753 q 594 839 654 838 l 531 839 l 531 549 l 594 549 m 414 549 l 414 839 l 350 839 q 271 817 307 840 q 219 756 235 794 q 219 632 196 693 q 271 569 235 592 q 350 549 307 546 l 414 549 m 725 224 q 725 347 749 286 q 674 410 710 388 q 594 431 638 433 l 531 431 l 531 140 l 594 140 q 674 160 638 138 q 725 224 710 183 z "},"%":{"ha":935,"x_min":82,"x_max":853,"o":"m 740 995 q 752 998 740 995 q 784 987 764 1000 q 810 950 804 974 q 801 907 815 926 l 231 10 q 194 -17 218 -11 q 150 -9 171 -22 q 124 28 129 4 q 132 72 119 51 l 703 969 q 740 995 717 990 m 263 553 q 135 606 188 553 q 82 733 82 660 l 82 815 q 135 944 82 890 q 263 997 188 997 q 391 944 338 997 q 444 815 444 890 l 444 733 q 391 606 444 660 q 263 553 338 553 m 200 815 l 200 733 q 218 690 200 708 q 263 671 236 671 q 308 690 289 671 q 326 733 326 708 l 326 815 q 308 860 326 842 q 263 879 289 879 q 218 860 236 879 q 200 815 200 842 m 799 372 q 851 244 851 319 l 851 163 q 799 35 851 88 q 671 -18 746 -18 q 543 35 596 -18 q 490 163 490 88 l 490 244 q 521 345 490 300 q 602 412 551 390 q 706 422 653 433 q 799 372 760 411 m 735 163 l 735 244 q 716 290 735 271 q 671 308 697 308 q 626 290 644 308 q 607 244 607 271 l 607 163 q 626 118 607 136 q 671 100 644 100 q 716 118 697 100 q 735 163 735 136 z "},"&":{"ha":1008,"x_min":88,"x_max":949,"o":"m 906 54 q 944 7 939 42 q 920 -49 949 -28 q 860 -54 892 -69 l 714 8 q 642 -29 681 -14 q 490 -61 568 -58 q 336 -40 411 -64 q 163 74 231 -6 q 92 274 96 154 q 122 428 88 354 q 221 551 156 501 q 161 599 188 571 q 90 775 90 672 q 167 960 90 883 q 353 1038 244 1038 q 538 960 461 1038 q 615 775 615 883 q 598 733 615 750 q 556 717 581 717 q 515 733 532 717 q 499 775 499 750 q 456 877 499 835 q 353 919 413 919 q 251 877 293 919 q 208 775 208 835 q 246 679 207 719 q 349 629 289 636 l 353 629 q 368 628 361 629 q 369 628 368 628 q 390 624 383 625 q 431 610 413 625 q 451 573 449 596 q 441 531 454 550 q 404 508 428 513 q 258 426 317 493 q 208 278 204 363 q 256 147 211 199 q 372 72 301 94 q 486 57 428 54 q 599 79 544 58 q 705 161 665 107 q 742 293 744 215 q 722 378 740 338 q 674 447 704 418 q 655 504 647 471 q 696 547 663 538 q 753 532 729 556 q 829 425 801 486 q 858 297 856 364 q 804 97 865 189 l 906 54 z "},"'":{"ha":333,"x_min":54,"x_max":272,"o":"m 186 932 q 240 913 217 932 q 267 863 263 893 q 256 808 272 833 q 212 773 240 782 q 156 775 183 764 q 114 813 128 786 q 110 811 113 811 q 81 819 94 810 q 67 846 68 829 q 100 983 54 936 q 225 1026 142 1026 q 260 1006 249 1026 q 259 967 271 986 q 225 947 247 947 q 157 929 175 949 q 153 925 154 926 q 186 932 169 932 z "},"‘":{"ha":333,"x_min":54,"x_max":272,"o":"m 186 932 q 240 913 217 932 q 267 863 263 893 q 256 808 272 833 q 212 773 240 782 q 156 775 183 764 q 114 813 128 786 q 110 811 113 811 q 81 819 94 810 q 67 846 68 829 q 100 983 54 936 q 225 1026 142 1026 q 260 1006 249 1026 q 259 967 271 986 q 225 947 247 947 q 157 929 175 949 q 153 925 154 926 q 186 932 169 932 z "},"’":{"ha":333,"x_min":54,"x_max":272,"o":"m 186 932 q 240 913 217 932 q 267 863 263 893 q 256 808 272 833 q 212 773 240 782 q 156 775 183 764 q 114 813 128 786 q 110 811 113 811 q 81 819 94 810 q 67 846 68 829 q 100 983 54 936 q 225 1026 142 1026 q 260 1006 249 1026 q 259 967 271 986 q 225 947 247 947 q 157 929 175 949 q 153 925 154 926 q 186 932 169 932 z "},"(":{"ha":476,"x_min":72,"x_max":408,"o":"m 350 58 q 391 41 374 58 q 408 -1 408 24 q 391 -42 408 -25 q 350 -58 374 -58 q 194 35 256 -58 q 107 279 132 128 q 107 699 74 489 q 194 944 132 851 q 350 1038 256 1038 q 391 1020 374 1038 q 408 978 408 1003 q 391 937 408 954 q 350 919 374 919 q 273 853 306 919 q 222 681 240 788 q 222 299 193 489 q 273 125 240 192 q 350 58 306 58 z "},")":{"ha":476,"x_min":68,"x_max":403,"o":"m 369 699 q 369 279 403 489 q 283 35 344 128 q 126 -58 221 -58 q 85 -42 103 -58 q 68 0 68 -25 q 85 42 68 25 q 126 58 103 58 q 203 125 171 58 q 254 299 236 192 q 254 681 283 489 q 203 853 236 788 q 126 919 171 919 q 85 937 103 919 q 68 978 68 954 q 85 1020 68 1003 q 126 1038 103 1038 q 283 944 221 1038 q 369 699 344 851 z "},"*":{"ha":621,"x_min":69,"x_max":550,"o":"m 515 724 q 543 688 536 711 q 538 644 550 665 q 502 616 525 622 q 457 622 479 610 l 369 674 l 369 571 q 352 530 369 547 q 310 513 335 513 q 269 530 286 513 q 251 571 251 547 l 251 674 l 163 622 q 119 617 142 610 q 83 644 96 624 q 77 688 71 665 q 104 724 83 711 l 193 775 l 104 826 q 77 861 83 838 q 83 906 71 885 q 118 933 94 926 q 163 928 142 939 l 251 876 l 251 979 q 269 1020 251 1003 q 310 1038 286 1038 q 352 1020 335 1038 q 369 979 369 1003 l 369 876 l 457 928 q 501 933 478 939 q 537 906 525 926 q 542 862 549 885 q 517 826 536 839 l 428 775 l 515 724 z "},"+":{"ha":660,"x_min":67,"x_max":593,"o":"m 533 549 q 574 531 557 549 q 592 490 592 514 q 574 448 592 465 q 533 431 557 431 l 388 431 l 388 286 q 371 244 388 261 q 330 226 354 226 q 288 244 306 226 q 271 286 271 261 l 271 431 l 125 431 q 84 448 101 431 q 67 490 67 465 q 84 531 67 514 q 125 549 101 549 l 271 549 l 271 693 q 288 735 271 718 q 330 751 306 751 q 371 735 354 751 q 388 693 388 718 l 388 549 l 533 549 z "},",":{"ha":326,"x_min":53,"x_max":274,"o":"m 261 86 q 228 -51 274 -4 q 103 -94 186 -94 q 68 -74 79 -94 q 69 -35 57 -54 q 103 -17 81 -15 q 171 3 153 -17 q 175 7 174 6 q 113 5 144 -7 q 67 47 82 17 q 64 108 53 76 q 105 154 75 139 q 167 159 135 169 q 214 119 199 149 q 218 121 215 119 q 247 113 233 122 q 261 86 260 103 z "},"-":{"ha":638,"x_min":54,"x_max":582,"o":"m 522 549 q 563 531 546 549 q 581 490 581 514 q 563 448 581 465 q 522 431 546 431 l 114 431 q 73 448 90 431 q 56 490 56 465 q 73 531 56 514 q 114 549 90 549 l 522 549 z "},".":{"ha":283,"x_min":58,"x_max":224,"o":"m 199 24 q 187 12 199 24 q 141 0 175 0 q 83 24 107 0 q 60 81 60 47 q 83 139 60 115 q 141 163 107 163 q 199 139 175 163 q 222 81 222 115 q 199 24 222 47 z "},"/":{"ha":653,"x_min":58,"x_max":594,"o":"m 509 993 q 520 997 509 993 q 554 992 532 1001 q 585 959 576 982 q 583 914 593 936 l 176 17 q 143 -14 165 -6 q 99 -12 121 -22 q 68 20 76 -3 q 69 65 60 43 l 476 963 q 509 993 486 985 z "},":":{"ha":308,"x_min":71,"x_max":236,"o":"m 211 310 q 199 298 211 310 q 153 286 188 286 q 96 310 119 286 q 72 367 72 333 q 96 425 72 401 q 153 449 119 449 q 211 425 188 449 q 235 367 235 401 q 211 310 235 333 m 211 554 q 199 542 211 554 q 153 531 188 531 q 96 554 119 531 q 72 612 72 578 q 96 669 72 646 q 153 693 119 693 q 211 669 188 693 q 235 612 235 646 q 211 554 235 578 z "},";":{"ha":356,"x_min":68,"x_max":289,"o":"m 235 554 q 223 542 235 554 q 177 531 211 531 q 119 554 143 531 q 96 612 96 578 q 119 669 96 646 q 177 693 143 693 q 235 669 211 693 q 258 612 258 646 q 235 554 258 578 m 276 372 q 243 233 289 281 q 118 192 201 190 q 83 211 94 192 q 84 250 72 231 q 118 269 96 269 q 186 289 168 269 q 190 293 189 290 q 128 290 160 279 q 83 332 97 301 q 79 394 68 363 q 120 440 90 425 q 182 445 150 456 q 229 406 214 435 q 233 406 231 406 q 262 398 249 408 q 276 372 275 388 z "},"<":{"ha":747,"x_min":64,"x_max":678,"o":"m 633 382 q 667 352 656 374 q 670 308 678 331 q 641 274 663 285 q 596 271 619 263 l 107 433 q 67 485 69 446 q 99 542 64 524 l 589 786 q 647 783 618 801 q 673 731 675 764 q 640 682 671 697 l 278 500 l 633 382 z "},"=":{"ha":660,"x_min":67,"x_max":593,"o":"m 125 513 q 84 530 101 513 q 67 572 67 547 q 84 613 67 596 q 125 629 101 629 l 533 629 q 574 613 557 629 q 592 572 592 596 q 574 530 592 547 q 533 513 557 513 l 125 513 m 533 467 q 574 449 557 467 q 592 408 592 432 q 574 366 592 383 q 533 349 557 349 l 125 349 q 84 366 101 349 q 67 408 67 383 q 84 449 67 432 q 125 467 101 467 l 533 467 z "},">":{"ha":747,"x_min":68,"x_max":683,"o":"m 649 542 q 681 485 683 524 q 640 433 678 446 l 151 271 q 106 274 128 263 q 77 308 85 285 q 81 352 69 331 q 114 382 92 374 l 469 500 l 107 682 q 74 731 76 697 q 100 783 72 764 q 158 786 128 801 l 649 542 z "},"?":{"ha":889,"x_min":58,"x_max":814,"o":"m 510 24 q 498 12 510 24 q 452 0 486 0 q 394 24 418 0 q 371 81 371 47 q 394 139 371 115 q 452 163 418 163 q 510 139 486 163 q 533 81 533 115 q 510 24 533 47 m 813 804 q 814 799 813 804 l 814 800 l 814 799 q 724 551 814 658 q 511 435 639 453 l 511 244 q 494 203 511 221 q 452 186 476 186 q 410 203 428 186 q 393 244 393 221 l 393 489 q 410 531 393 514 q 453 549 428 549 l 457 549 l 456 547 l 457 547 q 635 628 564 547 q 696 799 696 701 l 696 800 l 696 803 q 656 923 694 875 q 554 993 617 971 q 310 974 428 1033 q 214 882 247 942 q 190 742 181 822 q 178 699 193 718 q 139 678 163 681 q 97 690 115 675 q 74 728 78 704 q 109 940 58 850 q 256 1078 160 1029 q 421 1124 333 1118 q 592 1104 508 1131 q 751 994 690 1071 q 813 804 811 918 z "},"@":{"ha":958,"x_min":92,"x_max":864,"o":"m 825 982 q 864 889 864 944 l 864 229 q 825 136 864 174 l 825 135 q 757 99 796 107 q 681 107 718 92 q 622 156 644 122 q 600 229 600 189 l 600 351 q 571 338 586 344 q 378 338 475 300 q 272 421 313 364 q 232 560 232 478 l 232 632 q 272 771 232 714 q 378 854 313 828 q 571 854 475 892 q 604 838 588 847 q 630 867 611 857 q 669 874 649 878 q 703 853 690 869 q 717 817 717 838 l 717 229 q 726 215 717 219 q 742 218 735 211 q 746 229 746 222 l 746 889 q 742 900 746 896 q 732 904 738 904 l 406 904 q 268 847 325 904 q 211 710 211 790 l 211 269 q 268 132 211 189 q 406 75 325 75 l 567 75 q 608 58 590 75 q 625 16 625 40 q 608 -26 625 -8 q 567 -43 590 -43 l 406 -43 q 185 49 276 -43 q 93 269 93 140 l 93 710 q 185 930 93 839 q 406 1022 276 1021 l 732 1022 q 825 983 786 1021 l 825 982 m 600 560 l 600 632 q 582 700 601 669 q 528 744 563 731 q 421 744 475 765 q 367 700 388 731 q 350 632 347 669 l 350 560 q 367 492 347 522 q 421 447 388 461 q 528 447 475 426 q 582 492 563 461 q 600 560 601 522 z "},"A":{"ha":1014,"x_min":14,"x_max":1006,"o":"m 506 719 l 168 43 q 123 6 153 15 q 64 10 93 -4 q 25 54 35 24 q 29 113 15 85 l 436 929 q 506 972 458 972 q 576 929 554 972 l 983 113 q 979 35 1004 72 q 909 0 954 -3 q 844 43 864 3 l 743 244 l 531 244 q 476 267 499 244 q 453 323 453 290 q 476 378 453 356 q 531 401 499 401 l 665 401 l 506 719 z "},"À":{"ha":1014,"x_min":14,"x_max":1006,"o":"m 506 719 l 168 43 q 123 6 153 15 q 64 10 93 -4 q 25 54 35 24 q 29 113 15 85 l 436 929 q 506 972 458 972 q 576 929 554 972 l 983 113 q 979 35 1004 72 q 909 0 954 -3 q 844 43 864 3 l 743 244 l 531 244 q 476 267 499 244 q 453 323 453 290 q 476 378 453 356 q 531 401 499 401 l 665 401 l 506 719 z "},"Á":{"ha":1014,"x_min":14,"x_max":1006,"o":"m 506 719 l 168 43 q 123 6 153 15 q 64 10 93 -4 q 25 54 35 24 q 29 113 15 85 l 436 929 q 506 972 458 972 q 576 929 554 972 l 983 113 q 979 35 1004 72 q 909 0 954 -3 q 844 43 864 3 l 743 244 l 531 244 q 476 267 499 244 q 453 323 453 290 q 476 378 453 356 q 531 401 499 401 l 665 401 l 506 719 z "},"Â":{"ha":1014,"x_min":14,"x_max":1006,"o":"m 506 719 l 168 43 q 123 6 153 15 q 64 10 93 -4 q 25 54 35 24 q 29 113 15 85 l 436 929 q 506 972 458 972 q 576 929 554 972 l 983 113 q 979 35 1004 72 q 909 0 954 -3 q 844 43 864 3 l 743 244 l 531 244 q 476 267 499 244 q 453 323 453 290 q 476 378 453 356 q 531 401 499 401 l 665 401 l 506 719 z "},"Ã":{"ha":1014,"x_min":14,"x_max":1006,"o":"m 506 719 l 168 43 q 123 6 153 15 q 64 10 93 -4 q 25 54 35 24 q 29 113 15 85 l 436 929 q 506 972 458 972 q 576 929 554 972 l 983 113 q 979 35 1004 72 q 909 0 954 -3 q 844 43 864 3 l 743 244 l 531 244 q 476 267 499 244 q 453 323 453 290 q 476 378 453 356 q 531 401 499 401 l 665 401 l 506 719 z "},"Ä":{"ha":1014,"x_min":14,"x_max":1006,"o":"m 506 719 l 168 43 q 123 6 153 15 q 64 10 93 -4 q 25 54 35 24 q 29 113 15 85 l 436 929 q 506 972 458 972 q 576 929 554 972 l 983 113 q 979 35 1004 72 q 909 0 954 -3 q 844 43 864 3 l 743 244 l 531 244 q 476 267 499 244 q 453 323 453 290 q 476 378 453 356 q 531 401 499 401 l 665 401 l 506 719 z "},"Å":{"ha":1014,"x_min":14,"x_max":1006,"o":"m 506 719 l 168 43 q 123 6 153 15 q 64 10 93 -4 q 25 54 35 24 q 29 113 15 85 l 436 929 q 506 972 458 972 q 576 929 554 972 l 983 113 q 979 35 1004 72 q 909 0 954 -3 q 844 43 864 3 l 743 244 l 531 244 q 476 267 499 244 q 453 323 453 290 q 476 378 453 356 q 531 401 499 401 l 665 401 l 506 719 z "},"B":{"ha":950,"x_min":89,"x_max":911,"o":"m 247 815 l 247 731 q 224 676 247 699 q 169 653 201 653 q 113 676 136 653 q 90 731 90 699 l 90 894 q 113 949 90 926 q 168 972 136 972 l 536 972 q 683 931 615 972 q 788 818 751 889 q 817 667 824 747 q 763 524 810 588 q 817 482 793 506 q 893 337 876 421 q 877 174 910 253 q 774 48 844 96 q 617 0 703 0 l 168 0 q 113 23 136 0 q 90 78 90 46 l 90 486 q 113 541 90 518 q 168 564 136 564 l 536 564 q 624 601 588 564 q 661 690 661 638 q 624 778 661 742 q 536 815 588 815 l 247 815 m 617 408 l 247 408 l 247 157 l 617 157 q 706 194 669 157 q 743 283 743 231 q 706 372 743 335 q 617 408 669 408 z "},"C":{"ha":996,"x_min":29,"x_max":956,"o":"m 803 681 q 686 780 757 744 q 536 815 615 815 q 481 838 504 815 q 458 894 458 861 q 481 949 458 926 q 536 972 504 972 q 757 919 653 972 q 929 772 861 867 q 942 714 947 746 q 912 663 938 682 q 854 649 886 644 q 803 681 822 654 m 801 290 q 873 322 828 326 q 936 275 918 317 q 926 197 954 233 q 714 33 844 85 q 446 8 583 -18 q 206 130 308 35 q 67 360 103 225 q 72 629 31 496 q 219 854 113 763 q 276 873 243 875 q 329 847 308 871 q 348 790 350 822 q 321 736 346 757 q 209 531 226 654 q 261 303 192 407 q 452 167 331 199 q 685 192 574 135 q 801 290 756 228 z "},"Ç":{"ha":996,"x_min":29,"x_max":956,"o":"m 803 681 q 686 780 757 744 q 536 815 615 815 q 481 838 504 815 q 458 894 458 861 q 481 949 458 926 q 536 972 504 972 q 757 919 653 972 q 929 772 861 867 q 942 714 947 746 q 912 663 938 682 q 854 649 886 644 q 803 681 822 654 m 801 290 q 873 322 828 326 q 936 275 918 317 q 926 197 954 233 q 714 33 844 85 q 446 8 583 -18 q 206 130 308 35 q 67 360 103 225 q 72 629 31 496 q 219 854 113 763 q 276 873 243 875 q 329 847 308 871 q 348 790 350 822 q 321 736 346 757 q 209 531 226 654 q 261 303 192 407 q 452 167 331 199 q 685 192 574 135 q 801 290 756 228 z "},"D":{"ha":942,"x_min":85,"x_max":889,"o":"m 408 815 l 163 815 q 108 838 131 815 q 85 894 85 861 q 108 949 85 926 q 163 972 131 972 l 408 972 q 685 892 572 972 q 850 682 799 813 q 888 486 888 588 q 850 290 888 385 q 685 80 799 160 q 408 0 572 0 l 163 0 q 108 23 131 0 q 85 78 85 46 l 85 568 q 108 623 85 600 q 163 646 131 646 q 219 623 196 646 q 242 568 242 600 l 242 157 l 408 157 q 595 210 519 157 q 706 349 671 263 q 706 624 758 486 q 595 763 671 710 q 408 815 519 815 z "},"E":{"ha":932,"x_min":85,"x_max":894,"o":"m 242 157 l 815 157 q 872 134 849 157 q 894 78 894 111 q 872 23 894 46 q 815 0 849 0 l 163 0 q 108 23 131 0 q 85 78 85 46 l 85 486 q 108 541 85 518 q 163 564 131 564 l 653 564 q 708 541 685 564 q 731 486 731 518 q 708 431 731 454 q 653 408 685 408 l 242 408 l 242 157 m 242 815 l 242 731 q 219 676 242 699 q 163 653 196 653 q 108 676 131 653 q 85 731 85 699 l 85 894 q 108 949 85 926 q 163 972 131 972 l 815 972 q 872 949 849 972 q 894 894 894 926 q 872 838 894 861 q 815 815 849 815 l 242 815 z "},"È":{"ha":932,"x_min":85,"x_max":894,"o":"m 242 157 l 815 157 q 872 134 849 157 q 894 78 894 111 q 872 23 894 46 q 815 0 849 0 l 163 0 q 108 23 131 0 q 85 78 85 46 l 85 486 q 108 541 85 518 q 163 564 131 564 l 653 564 q 708 541 685 564 q 731 486 731 518 q 708 431 731 454 q 653 408 685 408 l 242 408 l 242 157 m 242 815 l 242 731 q 219 676 242 699 q 163 653 196 653 q 108 676 131 653 q 85 731 85 699 l 85 894 q 108 949 85 926 q 163 972 131 972 l 815 972 q 872 949 849 972 q 894 894 894 926 q 872 838 894 861 q 815 815 849 815 l 242 815 z "},"É":{"ha":932,"x_min":85,"x_max":894,"o":"m 242 157 l 815 157 q 872 134 849 157 q 894 78 894 111 q 872 23 894 46 q 815 0 849 0 l 163 0 q 108 23 131 0 q 85 78 85 46 l 85 486 q 108 541 85 518 q 163 564 131 564 l 653 564 q 708 541 685 564 q 731 486 731 518 q 708 431 731 454 q 653 408 685 408 l 242 408 l 242 157 m 242 815 l 242 731 q 219 676 242 699 q 163 653 196 653 q 108 676 131 653 q 85 731 85 699 l 85 894 q 108 949 85 926 q 163 972 131 972 l 815 972 q 872 949 849 972 q 894 894 894 926 q 872 838 894 861 q 815 815 849 815 l 242 815 z "},"Ê":{"ha":932,"x_min":85,"x_max":894,"o":"m 242 157 l 815 157 q 872 134 849 157 q 894 78 894 111 q 872 23 894 46 q 815 0 849 0 l 163 0 q 108 23 131 0 q 85 78 85 46 l 85 486 q 108 541 85 518 q 163 564 131 564 l 653 564 q 708 541 685 564 q 731 486 731 518 q 708 431 731 454 q 653 408 685 408 l 242 408 l 242 157 m 242 815 l 242 731 q 219 676 242 699 q 163 653 196 653 q 108 676 131 653 q 85 731 85 699 l 85 894 q 108 949 85 926 q 163 972 131 972 l 815 972 q 872 949 849 972 q 894 894 894 926 q 872 838 894 861 q 815 815 849 815 l 242 815 z "},"Ë":{"ha":932,"x_min":85,"x_max":894,"o":"m 242 157 l 815 157 q 872 134 849 157 q 894 78 894 111 q 872 23 894 46 q 815 0 849 0 l 163 0 q 108 23 131 0 q 85 78 85 46 l 85 486 q 108 541 85 518 q 163 564 131 564 l 653 564 q 708 541 685 564 q 731 486 731 518 q 708 431 731 454 q 653 408 685 408 l 242 408 l 242 157 m 242 815 l 242 731 q 219 676 242 699 q 163 653 196 653 q 108 676 131 653 q 85 731 85 699 l 85 894 q 108 949 85 926 q 163 972 131 972 l 815 972 q 872 949 849 972 q 894 894 894 926 q 872 838 894 861 q 815 815 849 815 l 242 815 z "},"F":{"ha":910,"x_min":85,"x_max":894,"o":"m 242 408 l 242 78 q 219 23 242 46 q 163 0 196 0 q 108 23 131 0 q 85 78 85 46 l 85 486 q 108 541 85 518 q 163 564 131 564 l 653 564 q 708 541 685 564 q 731 486 731 518 q 708 431 731 454 q 653 408 685 408 l 242 408 m 242 815 l 242 731 q 219 676 242 699 q 163 653 196 653 q 108 676 131 653 q 85 731 85 699 l 85 894 q 108 949 85 926 q 163 972 131 972 l 815 972 q 872 949 849 972 q 894 894 894 926 q 872 838 894 861 q 815 815 849 815 l 242 815 z "},"G":{"ha":1060,"x_min":26,"x_max":1022,"o":"m 740 746 q 536 815 650 817 q 480 838 503 815 q 457 894 457 861 q 480 949 457 926 q 536 972 503 972 q 836 868 704 972 q 866 815 863 847 q 849 758 869 783 q 797 729 829 733 q 740 746 765 725 m 218 854 q 276 873 243 875 q 329 847 308 871 q 348 790 350 822 q 321 736 346 757 q 215 563 240 667 q 231 360 190 458 q 363 205 272 261 q 561 157 454 149 q 749 235 668 165 q 856 408 831 304 l 536 408 q 480 431 503 408 q 457 486 457 454 q 480 541 457 518 q 536 564 503 564 l 943 564 q 999 541 976 564 q 1022 486 1022 518 q 918 185 1022 318 q 650 13 814 53 q 333 44 486 -26 q 103 264 181 114 q 59 579 26 414 q 218 854 92 744 z "},"H":{"ha":993,"x_min":89,"x_max":899,"o":"m 89 738 l 89 894 q 112 949 89 926 q 167 972 135 972 q 223 949 200 972 q 246 894 246 926 l 246 738 q 223 681 246 704 q 167 658 200 658 q 112 681 135 658 q 89 738 89 704 m 167 564 l 742 564 l 742 894 q 765 949 742 926 q 820 972 788 972 q 876 949 853 972 q 899 894 899 926 l 899 78 q 876 23 899 46 q 820 0 853 0 q 765 23 788 0 q 742 78 742 46 l 742 408 l 246 408 l 246 78 q 223 23 246 46 q 167 0 200 0 q 112 23 135 0 q 89 78 89 46 l 89 486 q 112 541 89 518 q 167 564 135 564 z "},"I":{"ha":346,"x_min":94,"x_max":251,"o":"m 94 78 l 94 894 q 117 949 94 926 q 173 972 140 972 q 228 949 206 972 q 251 894 251 926 l 251 78 q 228 23 251 46 q 173 0 206 0 q 117 23 140 0 q 94 78 94 46 z "},"Ì":{"ha":346,"x_min":94,"x_max":251,"o":"m 94 78 l 94 894 q 117 949 94 926 q 173 972 140 972 q 228 949 206 972 q 251 894 251 926 l 251 78 q 228 23 251 46 q 173 0 206 0 q 117 23 140 0 q 94 78 94 46 z "},"Í":{"ha":346,"x_min":94,"x_max":251,"o":"m 94 78 l 94 894 q 117 949 94 926 q 173 972 140 972 q 228 949 206 972 q 251 894 251 926 l 251 78 q 228 23 251 46 q 173 0 206 0 q 117 23 140 0 q 94 78 94 46 z "},"Î":{"ha":346,"x_min":94,"x_max":251,"o":"m 94 78 l 94 894 q 117 949 94 926 q 173 972 140 972 q 228 949 206 972 q 251 894 251 926 l 251 78 q 228 23 251 46 q 173 0 206 0 q 117 23 140 0 q 94 78 94 46 z "},"Ï":{"ha":346,"x_min":94,"x_max":251,"o":"m 94 78 l 94 894 q 117 949 94 926 q 173 972 140 972 q 228 949 206 972 q 251 894 251 926 l 251 78 q 228 23 251 46 q 173 0 206 0 q 117 23 140 0 q 94 78 94 46 z "},"J":{"ha":690,"x_min":15,"x_max":606,"o":"m 449 324 l 449 894 q 472 949 449 926 q 527 972 494 972 q 583 949 560 972 q 606 894 606 926 l 606 324 q 566 168 606 240 q 457 51 526 96 q 305 1 388 7 q 147 31 222 -4 q 36 114 83 60 q 18 171 15 139 q 45 224 21 203 q 102 242 69 244 q 156 215 135 240 q 213 172 179 188 q 294 157 251 154 q 372 183 336 160 q 428 243 407 206 q 449 324 449 281 z "},"K":{"ha":936,"x_min":82,"x_max":906,"o":"m 85 404 l 85 894 q 108 949 85 926 q 163 972 131 972 q 219 949 196 972 q 242 894 242 926 l 242 404 q 219 349 242 372 q 163 326 196 326 q 108 349 131 326 q 85 404 85 372 m 881 122 q 892 63 899 94 q 858 14 885 32 q 800 2 832 -4 q 750 35 768 8 l 513 392 l 224 29 q 172 2 204 6 q 115 18 140 -1 q 86 69 90 38 q 103 126 82 101 l 453 565 q 463 578 457 572 l 754 943 q 827 972 782 978 q 889 923 872 965 q 876 846 906 881 l 615 519 l 881 122 z "},"L":{"ha":821,"x_min":85,"x_max":813,"o":"m 85 324 l 85 894 q 108 949 85 926 q 163 972 131 972 q 219 949 196 972 q 242 894 242 926 l 242 324 q 219 267 242 290 q 163 244 196 244 q 108 267 131 244 q 85 324 85 290 m 733 0 l 163 0 q 108 23 131 0 q 85 78 85 46 q 108 134 85 111 q 163 157 131 157 l 733 157 q 790 134 767 157 q 813 78 813 111 q 790 23 813 46 q 733 0 767 0 z "},"M":{"ha":1147,"x_min":75,"x_max":1053,"o":"m 238 486 l 238 78 q 215 23 238 46 q 159 0 192 0 q 103 23 126 0 q 81 78 81 46 l 81 486 q 103 541 81 518 q 159 564 126 564 q 215 541 192 564 q 238 486 238 518 m 93 853 q 83 912 75 881 q 117 960 90 943 q 176 970 144 978 q 225 935 208 963 l 567 389 l 906 932 q 943 966 918 956 q 994 970 968 976 q 1036 942 1019 964 q 1053 894 1053 921 l 1053 78 q 1030 23 1053 46 q 974 0 1007 0 q 919 23 942 0 q 896 78 896 46 l 896 621 l 633 201 q 567 163 611 164 q 500 200 524 163 l 93 853 z "},"N":{"ha":983,"x_min":67,"x_max":889,"o":"m 236 492 l 236 78 q 213 23 236 46 q 158 0 190 0 q 102 23 125 0 q 79 78 79 46 l 79 492 q 102 548 79 525 q 158 571 125 571 q 213 548 190 571 q 236 492 236 525 m 97 846 q 85 923 68 881 q 146 972 101 965 q 218 943 190 978 l 732 301 l 732 894 q 755 949 732 926 q 810 972 778 972 q 866 949 843 972 q 889 894 889 926 l 889 78 l 888 78 q 874 33 888 54 q 836 5 860 13 q 789 3 813 -3 q 749 29 765 10 l 97 846 z "},"Ñ":{"ha":983,"x_min":67,"x_max":889,"o":"m 236 492 l 236 78 q 213 23 236 46 q 158 0 190 0 q 102 23 125 0 q 79 78 79 46 l 79 492 q 102 548 79 525 q 158 571 125 571 q 213 548 190 571 q 236 492 236 525 m 97 846 q 85 923 68 881 q 146 972 101 965 q 218 943 190 978 l 732 301 l 732 894 q 755 949 732 926 q 810 972 778 972 q 866 949 843 972 q 889 894 889 926 l 889 78 l 888 78 q 874 33 888 54 q 836 5 860 13 q 789 3 813 -3 q 749 29 765 10 l 97 846 z "},"O":{"ha":1074,"x_min":28,"x_max":1047,"o":"m 822 322 q 852 373 822 322 q 861 543 882 425 q 748 738 840 661 q 536 815 656 815 q 481 838 504 815 q 458 894 458 861 q 481 949 458 926 q 536 972 504 972 q 849 859 713 972 q 1016 572 985 746 q 960 245 1047 399 q 706 30 872 92 q 374 27 540 -32 q 117 238 207 86 q 56 565 28 390 q 219 854 85 739 q 276 873 243 875 q 329 847 308 871 q 348 790 350 822 q 321 736 346 757 q 210 540 231 658 q 251 319 190 422 q 425 175 313 215 q 650 176 538 135 q 822 322 763 218 z "},"Ò":{"ha":1074,"x_min":28,"x_max":1047,"o":"m 822 322 q 852 373 822 322 q 861 543 882 425 q 748 738 840 661 q 536 815 656 815 q 481 838 504 815 q 458 894 458 861 q 481 949 458 926 q 536 972 504 972 q 849 859 713 972 q 1016 572 985 746 q 960 245 1047 399 q 706 30 872 92 q 374 27 540 -32 q 117 238 207 86 q 56 565 28 390 q 219 854 85 739 q 276 873 243 875 q 329 847 308 871 q 348 790 350 822 q 321 736 346 757 q 210 540 231 658 q 251 319 190 422 q 425 175 313 215 q 650 176 538 135 q 822 322 763 218 z "},"Ó":{"ha":1074,"x_min":28,"x_max":1047,"o":"m 822 322 q 852 373 822 322 q 861 543 882 425 q 748 738 840 661 q 536 815 656 815 q 481 838 504 815 q 458 894 458 861 q 481 949 458 926 q 536 972 504 972 q 849 859 713 972 q 1016 572 985 746 q 960 245 1047 399 q 706 30 872 92 q 374 27 540 -32 q 117 238 207 86 q 56 565 28 390 q 219 854 85 739 q 276 873 243 875 q 329 847 308 871 q 348 790 350 822 q 321 736 346 757 q 210 540 231 658 q 251 319 190 422 q 425 175 313 215 q 650 176 538 135 q 822 322 763 218 z "},"Ô":{"ha":1074,"x_min":28,"x_max":1047,"o":"m 822 322 q 852 373 822 322 q 861 543 882 425 q 748 738 840 661 q 536 815 656 815 q 481 838 504 815 q 458 894 458 861 q 481 949 458 926 q 536 972 504 972 q 849 859 713 972 q 1016 572 985 746 q 960 245 1047 399 q 706 30 872 92 q 374 27 540 -32 q 117 238 207 86 q 56 565 28 390 q 219 854 85 739 q 276 873 243 875 q 329 847 308 871 q 348 790 350 822 q 321 736 346 757 q 210 540 231 658 q 251 319 190 422 q 425 175 313 215 q 650 176 538 135 q 822 322 763 218 z "},"Õ":{"ha":1074,"x_min":28,"x_max":1047,"o":"m 822 322 q 852 373 822 322 q 861 543 882 425 q 748 738 840 661 q 536 815 656 815 q 481 838 504 815 q 458 894 458 861 q 481 949 458 926 q 536 972 504 972 q 849 859 713 972 q 1016 572 985 746 q 960 245 1047 399 q 706 30 872 92 q 374 27 540 -32 q 117 238 207 86 q 56 565 28 390 q 219 854 85 739 q 276 873 243 875 q 329 847 308 871 q 348 790 350 822 q 321 736 346 757 q 210 540 231 658 q 251 319 190 422 q 425 175 313 215 q 650 176 538 135 q 822 322 763 218 z "},"Ö":{"ha":1074,"x_min":28,"x_max":1047,"o":"m 822 322 q 852 373 822 322 q 861 543 882 425 q 748 738 840 661 q 536 815 656 815 q 481 838 504 815 q 458 894 458 861 q 481 949 458 926 q 536 972 504 972 q 849 859 713 972 q 1016 572 985 746 q 960 245 1047 399 q 706 30 872 92 q 374 27 540 -32 q 117 238 207 86 q 56 565 28 390 q 219 854 85 739 q 276 873 243 875 q 329 847 308 871 q 348 790 350 822 q 321 736 346 757 q 210 540 231 658 q 251 319 190 422 q 425 175 313 215 q 650 176 538 135 q 822 322 763 218 z "},"Ø":{"ha":1074,"x_min":28,"x_max":1047,"o":"m 822 322 q 852 373 822 322 q 861 543 882 425 q 748 738 840 661 q 536 815 656 815 q 481 838 504 815 q 458 894 458 861 q 481 949 458 926 q 536 972 504 972 q 849 859 713 972 q 1016 572 985 746 q 960 245 1047 399 q 706 30 872 92 q 374 27 540 -32 q 117 238 207 86 q 56 565 28 390 q 219 854 85 739 q 276 873 243 875 q 329 847 308 871 q 348 790 350 822 q 321 736 346 757 q 210 540 231 658 q 251 319 190 422 q 425 175 313 215 q 650 176 538 135 q 822 322 763 218 z "},"P":{"ha":932,"x_min":83,"x_max":918,"o":"m 571 815 l 163 815 q 108 838 131 815 q 85 894 85 861 q 108 949 85 926 q 163 972 131 972 l 571 972 q 756 919 681 972 q 865 778 831 865 q 865 521 917 649 q 756 380 831 433 q 571 326 681 326 l 242 326 l 242 78 q 219 23 242 46 q 163 0 196 0 q 108 23 131 0 q 85 78 85 46 l 85 568 q 108 623 85 600 q 163 646 131 646 q 219 623 196 646 q 242 568 242 600 l 242 483 l 571 483 q 665 509 626 483 q 721 578 704 535 q 721 721 747 649 q 665 790 704 764 q 571 815 626 815 z "},"Q":{"ha":1088,"x_min":35,"x_max":1032,"o":"m 536 815 q 481 838 504 815 q 458 894 458 861 q 481 949 458 926 q 536 972 504 972 q 790 901 674 972 q 969 708 907 829 q 1021 450 1031 586 q 931 203 1011 314 l 1000 133 q 1020 58 1032 101 q 965 2 1008 14 q 889 24 921 -10 l 819 92 q 592 3 717 17 q 350 37 467 -11 q 154 185 233 85 q 56 410 75 286 q 79 653 36 535 q 219 854 122 771 q 276 873 243 875 q 329 847 308 871 q 348 790 350 822 q 321 736 346 757 q 210 540 231 658 q 251 319 190 422 q 425 175 313 215 q 650 176 538 135 q 822 322 763 218 q 861 544 882 426 q 748 738 840 661 q 536 815 656 815 z "},"R":{"ha":943,"x_min":83,"x_max":918,"o":"m 571 815 l 163 815 q 108 838 131 815 q 85 894 85 861 q 108 949 85 926 q 163 972 131 972 l 571 972 q 756 919 681 972 q 865 778 831 865 q 865 521 917 649 q 796 414 843 460 q 688 346 749 368 l 804 113 q 808 54 818 85 q 769 10 797 24 q 710 6 740 -4 q 664 43 679 15 l 522 326 l 242 326 l 242 78 q 219 23 242 46 q 163 0 196 0 q 108 23 131 0 q 85 78 85 46 l 85 568 q 108 623 85 600 q 163 646 131 646 q 219 623 196 646 q 242 568 242 600 l 242 483 l 571 483 q 665 509 626 483 q 721 578 704 535 q 721 721 747 649 q 665 790 704 764 q 571 815 626 815 z "},"S":{"ha":943,"x_min":46,"x_max":897,"o":"m 349 564 q 405 541 382 564 q 428 486 428 518 q 405 431 428 454 q 349 408 382 408 q 188 455 253 408 q 92 578 122 501 q 92 803 46 690 q 188 925 122 878 q 349 972 253 972 l 593 972 q 792 890 710 972 q 876 690 875 807 q 853 634 876 657 q 798 611 831 611 q 742 634 765 611 q 719 690 719 657 q 683 778 719 742 q 593 815 646 815 l 349 815 q 281 799 313 818 q 236 744 250 779 q 236 635 215 690 q 281 582 250 601 q 349 564 313 563 m 593 408 q 538 431 561 408 q 515 486 515 454 q 538 541 515 518 q 593 564 561 564 q 755 517 689 564 q 851 394 821 471 q 851 169 896 282 q 755 47 821 94 q 593 0 689 0 l 349 0 q 149 83 232 0 q 67 282 67 165 q 90 338 67 315 q 145 361 113 361 q 201 338 178 361 q 224 282 224 315 q 260 194 224 231 q 349 157 297 157 l 593 157 q 662 174 631 154 q 707 228 693 193 q 707 338 726 282 q 662 390 693 371 q 593 408 631 410 z "},"T":{"ha":826,"x_min":8,"x_max":818,"o":"m 739 815 l 86 815 q 31 838 54 815 q 8 894 8 861 q 31 949 8 926 q 86 972 54 972 l 739 972 q 795 949 772 972 q 818 894 818 926 q 795 838 818 861 q 739 815 772 815 m 492 649 l 492 78 q 469 23 492 46 q 413 0 446 0 q 358 23 381 0 q 335 78 335 46 l 335 649 q 358 705 335 682 q 413 728 381 728 q 469 705 446 728 q 492 649 492 682 z "},"U":{"ha":817,"x_min":85,"x_max":732,"o":"m 574 324 l 574 894 q 597 949 574 926 q 652 972 619 972 q 708 949 685 972 q 731 894 731 926 l 731 324 q 636 94 731 189 q 408 0 542 0 q 179 94 274 0 q 85 324 85 189 l 85 894 q 108 949 85 926 q 163 972 131 972 q 219 949 196 972 q 242 894 242 926 l 242 324 q 290 206 242 254 q 408 157 339 157 q 525 206 476 157 q 574 324 574 254 z "},"Ù":{"ha":817,"x_min":85,"x_max":732,"o":"m 574 324 l 574 894 q 597 949 574 926 q 652 972 619 972 q 708 949 685 972 q 731 894 731 926 l 731 324 q 636 94 731 189 q 408 0 542 0 q 179 94 274 0 q 85 324 85 189 l 85 894 q 108 949 85 926 q 163 972 131 972 q 219 949 196 972 q 242 894 242 926 l 242 324 q 290 206 242 254 q 408 157 339 157 q 525 206 476 157 q 574 324 574 254 z "},"Ú":{"ha":817,"x_min":85,"x_max":732,"o":"m 574 324 l 574 894 q 597 949 574 926 q 652 972 619 972 q 708 949 685 972 q 731 894 731 926 l 731 324 q 636 94 731 189 q 408 0 542 0 q 179 94 274 0 q 85 324 85 189 l 85 894 q 108 949 85 926 q 163 972 131 972 q 219 949 196 972 q 242 894 242 926 l 242 324 q 290 206 242 254 q 408 157 339 157 q 525 206 476 157 q 574 324 574 254 z "},"Û":{"ha":817,"x_min":85,"x_max":732,"o":"m 574 324 l 574 894 q 597 949 574 926 q 652 972 619 972 q 708 949 685 972 q 731 894 731 926 l 731 324 q 636 94 731 189 q 408 0 542 0 q 179 94 274 0 q 85 324 85 189 l 85 894 q 108 949 85 926 q 163 972 131 972 q 219 949 196 972 q 242 894 242 926 l 242 324 q 290 206 242 254 q 408 157 339 157 q 525 206 476 157 q 574 324 574 254 z "},"Ü":{"ha":817,"x_min":85,"x_max":732,"o":"m 574 324 l 574 894 q 597 949 574 926 q 652 972 619 972 q 708 949 685 972 q 731 894 731 926 l 731 324 q 636 94 731 189 q 408 0 542 0 q 179 94 274 0 q 85 324 85 189 l 85 894 q 108 949 85 926 q 163 972 131 972 q 219 949 196 972 q 242 894 242 926 l 242 324 q 290 206 242 254 q 408 157 339 157 q 525 206 476 157 q 574 324 574 254 z "},"V":{"ha":1013,"x_min":7,"x_max":1004,"o":"m 272 369 l 28 860 q 32 938 7 900 q 102 972 57 975 q 168 929 147 969 l 413 439 q 416 381 426 411 q 377 335 406 350 q 318 331 349 321 q 272 369 288 342 m 575 43 q 531 6 561 15 q 472 10 500 -4 q 433 54 443 24 q 436 113 422 85 l 843 929 q 909 972 864 969 q 979 938 954 975 q 983 860 1004 900 l 575 43 z "},"W":{"ha":1054,"x_min":29,"x_max":1019,"o":"m 121 471 l 39 879 q 64 954 29 924 q 142 969 99 985 q 193 910 185 954 l 275 501 q 250 426 285 457 q 172 410 215 396 q 121 471 129 425 m 353 51 q 312 8 342 21 q 252 6 282 -6 q 208 46 222 17 q 206 106 194 75 l 451 758 q 480 794 460 781 q 524 808 500 808 q 569 794 549 808 q 597 758 589 781 l 746 363 l 856 910 q 906 969 863 954 q 984 954 950 985 q 1008 879 1018 924 l 846 63 l 844 63 q 821 20 840 38 q 775 1 801 3 q 726 13 749 -1 q 696 51 704 26 l 524 508 l 353 51 z "},"X":{"ha":811,"x_min":36,"x_max":774,"o":"m 310 486 l 56 849 q 43 908 38 876 q 75 958 49 939 q 133 971 101 976 q 183 939 165 965 l 406 622 l 626 939 q 677 971 646 965 q 735 958 708 976 q 767 908 761 939 q 754 849 774 876 l 500 486 l 754 124 q 767 65 774 96 q 735 15 761 33 q 677 1 708 -4 q 626 33 646 7 l 406 350 l 183 33 q 133 1 165 7 q 75 15 101 -4 q 43 65 49 33 q 56 124 38 96 l 310 486 z "},"Y":{"ha":768,"x_min":7,"x_max":760,"o":"m 192 533 l 28 860 q 32 938 7 900 q 102 972 57 975 q 168 929 147 969 l 331 603 q 334 543 344 574 q 295 499 324 513 q 236 494 267 485 q 192 533 206 504 m 461 306 l 461 78 q 438 23 461 46 q 383 0 415 0 q 328 23 351 0 q 306 78 306 46 l 306 324 q 317 364 306 346 l 599 929 q 665 972 619 969 q 735 938 710 975 q 739 860 760 900 l 461 306 z "},"Ý":{"ha":768,"x_min":7,"x_max":760,"o":"m 192 533 l 28 860 q 32 938 7 900 q 102 972 57 975 q 168 929 147 969 l 331 603 q 334 543 344 574 q 295 499 324 513 q 236 494 267 485 q 192 533 206 504 m 461 306 l 461 78 q 438 23 461 46 q 383 0 415 0 q 328 23 351 0 q 306 78 306 46 l 306 324 q 317 364 306 346 l 599 929 q 665 972 619 969 q 735 938 710 975 q 739 860 760 900 l 461 306 z "},"Ÿ":{"ha":768,"x_min":7,"x_max":760,"o":"m 192 533 l 28 860 q 32 938 7 900 q 102 972 57 975 q 168 929 147 969 l 331 603 q 334 543 344 574 q 295 499 324 513 q 236 494 267 485 q 192 533 206 504 m 461 306 l 461 78 q 438 23 461 46 q 383 0 415 0 q 328 23 351 0 q 306 78 306 46 l 306 324 q 317 364 306 346 l 599 929 q 665 972 619 969 q 735 938 710 975 q 739 860 760 900 l 461 306 z "},"Z":{"ha":800,"x_min":19,"x_max":761,"o":"m 682 815 l 111 815 q 56 838 79 815 q 33 894 33 861 q 56 949 33 926 q 111 972 79 972 l 682 972 q 738 949 715 972 q 761 894 761 926 q 738 838 761 861 q 682 815 715 815 m 51 128 l 540 729 q 593 758 561 756 q 650 741 625 761 q 678 689 675 721 q 661 632 682 657 l 276 157 l 682 157 q 738 134 715 157 q 761 78 761 111 q 738 23 761 46 q 682 0 715 0 l 111 0 q 41 44 63 0 q 51 128 19 89 z "},"[":{"ha":449,"x_min":94,"x_max":378,"o":"m 318 58 q 359 42 342 58 q 376 1 376 25 q 359 -41 376 -24 q 318 -58 342 -58 l 236 -58 q 183 -26 200 -58 l 104 132 q 96 163 96 146 l 96 815 q 103 842 96 829 l 182 1000 q 236 1038 196 1038 l 318 1038 q 359 1020 342 1038 q 376 978 376 1003 q 359 937 376 954 q 318 919 342 919 l 272 919 l 214 803 l 214 176 l 272 58 l 318 58 z "},"\\":{"ha":653,"x_min":57,"x_max":593,"o":"m 582 65 q 583 20 592 43 q 553 -12 575 -3 q 508 -14 531 -22 q 475 17 486 -6 l 68 914 q 67 958 58 936 q 97 991 75 981 q 142 992 119 1001 q 175 963 164 983 l 582 65 z "},"]":{"ha":449,"x_min":71,"x_max":353,"o":"m 351 815 l 351 163 q 343 132 351 146 l 264 -26 q 211 -58 247 -58 l 129 -58 q 88 -42 106 -58 q 71 -1 71 -25 q 88 41 71 24 q 129 58 106 58 l 175 58 l 233 176 l 233 803 l 175 919 l 129 919 q 88 937 106 919 q 71 978 71 954 q 88 1020 71 1003 q 129 1038 106 1038 l 211 1038 q 265 1000 251 1038 l 344 842 q 351 815 351 829 z "},"^":{"ha":504,"x_min":67,"x_max":438,"o":"m 431 667 q 424 622 438 643 q 388 596 411 601 q 344 603 365 590 q 318 639 324 615 l 251 900 l 186 639 q 160 603 181 615 q 115 596 139 590 q 79 622 92 601 q 72 667 67 643 l 154 993 q 175 1025 160 1013 q 211 1038 190 1038 l 293 1038 q 330 1024 314 1038 q 350 990 346 1011 l 431 667 z "},"_":{"ha":882,"x_min":56,"x_max":826,"o":"m 767 118 q 808 101 792 118 q 825 59 825 83 q 808 17 825 35 q 767 0 792 0 l 114 0 q 73 17 90 0 q 56 59 56 35 q 73 101 56 83 q 114 118 90 118 l 767 118 z "},"`":{"ha":328,"x_min":67,"x_max":267,"o":"m 207 874 q 249 857 232 874 q 265 816 265 840 q 249 774 265 792 q 207 757 232 757 l 125 757 q 84 774 101 757 q 67 815 67 792 l 67 979 q 84 1020 67 1003 q 126 1038 101 1038 q 167 1020 150 1038 q 185 979 185 1003 l 185 874 l 207 874 z "},"a":{"ha":1014,"x_min":14,"x_max":1006,"o":"m 506 719 l 168 43 q 123 6 153 15 q 64 10 93 -4 q 25 54 35 24 q 29 113 15 85 l 436 929 q 506 972 458 972 q 576 929 554 972 l 983 113 q 979 35 1004 72 q 909 0 954 -3 q 844 43 864 3 l 743 244 l 531 244 q 476 267 499 244 q 453 323 453 290 q 476 378 453 356 q 531 401 499 401 l 665 401 l 506 719 z "},"à":{"ha":1014,"x_min":14,"x_max":1006,"o":"m 506 719 l 168 43 q 123 6 153 15 q 64 10 93 -4 q 25 54 35 24 q 29 113 15 85 l 436 929 q 506 972 458 972 q 576 929 554 972 l 983 113 q 979 35 1004 72 q 909 0 954 -3 q 844 43 864 3 l 743 244 l 531 244 q 476 267 499 244 q 453 323 453 290 q 476 378 453 356 q 531 401 499 401 l 665 401 l 506 719 z "},"á":{"ha":1014,"x_min":14,"x_max":1006,"o":"m 506 719 l 168 43 q 123 6 153 15 q 64 10 93 -4 q 25 54 35 24 q 29 113 15 85 l 436 929 q 506 972 458 972 q 576 929 554 972 l 983 113 q 979 35 1004 72 q 909 0 954 -3 q 844 43 864 3 l 743 244 l 531 244 q 476 267 499 244 q 453 323 453 290 q 476 378 453 356 q 531 401 499 401 l 665 401 l 506 719 z "},"â":{"ha":1014,"x_min":14,"x_max":1006,"o":"m 506 719 l 168 43 q 123 6 153 15 q 64 10 93 -4 q 25 54 35 24 q 29 113 15 85 l 436 929 q 506 972 458 972 q 576 929 554 972 l 983 113 q 979 35 1004 72 q 909 0 954 -3 q 844 43 864 3 l 743 244 l 531 244 q 476 267 499 244 q 453 323 453 290 q 476 378 453 356 q 531 401 499 401 l 665 401 l 506 719 z "},"ã":{"ha":1014,"x_min":14,"x_max":1006,"o":"m 506 719 l 168 43 q 123 6 153 15 q 64 10 93 -4 q 25 54 35 24 q 29 113 15 85 l 436 929 q 506 972 458 972 q 576 929 554 972 l 983 113 q 979 35 1004 72 q 909 0 954 -3 q 844 43 864 3 l 743 244 l 531 244 q 476 267 499 244 q 453 323 453 290 q 476 378 453 356 q 531 401 499 401 l 665 401 l 506 719 z "},"ä":{"ha":1014,"x_min":14,"x_max":1006,"o":"m 506 719 l 168 43 q 123 6 153 15 q 64 10 93 -4 q 25 54 35 24 q 29 113 15 85 l 436 929 q 506 972 458 972 q 576 929 554 972 l 983 113 q 979 35 1004 72 q 909 0 954 -3 q 844 43 864 3 l 743 244 l 531 244 q 476 267 499 244 q 453 323 453 290 q 476 378 453 356 q 531 401 499 401 l 665 401 l 506 719 z "},"å":{"ha":1014,"x_min":14,"x_max":1006,"o":"m 506 719 l 168 43 q 123 6 153 15 q 64 10 93 -4 q 25 54 35 24 q 29 113 15 85 l 436 929 q 506 972 458 972 q 576 929 554 972 l 983 113 q 979 35 1004 72 q 909 0 954 -3 q 844 43 864 3 l 743 244 l 531 244 q 476 267 499 244 q 453 323 453 290 q 476 378 453 356 q 531 401 499 401 l 665 401 l 506 719 z "},"b":{"ha":950,"x_min":89,"x_max":911,"o":"m 247 815 l 247 731 q 224 676 247 699 q 169 653 201 653 q 113 676 136 653 q 90 731 90 699 l 90 894 q 113 949 90 926 q 168 972 136 972 l 536 972 q 683 931 615 972 q 788 818 751 889 q 817 667 824 747 q 763 524 810 588 q 817 482 793 506 q 893 337 876 421 q 877 174 910 253 q 774 48 844 96 q 617 0 703 0 l 168 0 q 113 23 136 0 q 90 78 90 46 l 90 486 q 113 541 90 518 q 168 564 136 564 l 536 564 q 624 601 588 564 q 661 690 661 638 q 624 778 661 742 q 536 815 588 815 l 247 815 m 617 408 l 247 408 l 247 157 l 617 157 q 706 194 669 157 q 743 283 743 231 q 706 372 743 335 q 617 408 669 408 z "},"c":{"ha":996,"x_min":29,"x_max":956,"o":"m 803 681 q 686 780 757 744 q 536 815 615 815 q 481 838 504 815 q 458 894 458 861 q 481 949 458 926 q 536 972 504 972 q 757 919 653 972 q 929 772 861 867 q 942 714 947 746 q 912 663 938 682 q 854 649 886 644 q 803 681 822 654 m 801 290 q 873 322 828 326 q 936 275 918 317 q 926 197 954 233 q 714 33 844 85 q 446 8 583 -18 q 206 130 308 35 q 67 360 103 225 q 72 629 31 496 q 219 854 113 763 q 276 873 243 875 q 329 847 308 871 q 348 790 350 822 q 321 736 346 757 q 209 531 226 654 q 261 303 192 407 q 452 167 331 199 q 685 192 574 135 q 801 290 756 228 z "},"ç":{"ha":996,"x_min":29,"x_max":956,"o":"m 803 681 q 686 780 757 744 q 536 815 615 815 q 481 838 504 815 q 458 894 458 861 q 481 949 458 926 q 536 972 504 972 q 757 919 653 972 q 929 772 861 867 q 942 714 947 746 q 912 663 938 682 q 854 649 886 644 q 803 681 822 654 m 801 290 q 873 322 828 326 q 936 275 918 317 q 926 197 954 233 q 714 33 844 85 q 446 8 583 -18 q 206 130 308 35 q 67 360 103 225 q 72 629 31 496 q 219 854 113 763 q 276 873 243 875 q 329 847 308 871 q 348 790 350 822 q 321 736 346 757 q 209 531 226 654 q 261 303 192 407 q 452 167 331 199 q 685 192 574 135 q 801 290 756 228 z "},"d":{"ha":942,"x_min":85,"x_max":889,"o":"m 408 815 l 163 815 q 108 838 131 815 q 85 894 85 861 q 108 949 85 926 q 163 972 131 972 l 408 972 q 685 892 572 972 q 850 682 799 813 q 888 486 888 588 q 850 290 888 385 q 685 80 799 160 q 408 0 572 0 l 163 0 q 108 23 131 0 q 85 78 85 46 l 85 568 q 108 623 85 600 q 163 646 131 646 q 219 623 196 646 q 242 568 242 600 l 242 157 l 408 157 q 595 210 519 157 q 706 349 671 263 q 706 624 758 486 q 595 763 671 710 q 408 815 519 815 z "},"e":{"ha":932,"x_min":85,"x_max":894,"o":"m 242 157 l 815 157 q 872 134 849 157 q 894 78 894 111 q 872 23 894 46 q 815 0 849 0 l 163 0 q 108 23 131 0 q 85 78 85 46 l 85 486 q 108 541 85 518 q 163 564 131 564 l 653 564 q 708 541 685 564 q 731 486 731 518 q 708 431 731 454 q 653 408 685 408 l 242 408 l 242 157 m 242 815 l 242 731 q 219 676 242 699 q 163 653 196 653 q 108 676 131 653 q 85 731 85 699 l 85 894 q 108 949 85 926 q 163 972 131 972 l 815 972 q 872 949 849 972 q 894 894 894 926 q 872 838 894 861 q 815 815 849 815 l 242 815 z "},"è":{"ha":932,"x_min":85,"x_max":894,"o":"m 242 157 l 815 157 q 872 134 849 157 q 894 78 894 111 q 872 23 894 46 q 815 0 849 0 l 163 0 q 108 23 131 0 q 85 78 85 46 l 85 486 q 108 541 85 518 q 163 564 131 564 l 653 564 q 708 541 685 564 q 731 486 731 518 q 708 431 731 454 q 653 408 685 408 l 242 408 l 242 157 m 242 815 l 242 731 q 219 676 242 699 q 163 653 196 653 q 108 676 131 653 q 85 731 85 699 l 85 894 q 108 949 85 926 q 163 972 131 972 l 815 972 q 872 949 849 972 q 894 894 894 926 q 872 838 894 861 q 815 815 849 815 l 242 815 z "},"é":{"ha":932,"x_min":85,"x_max":894,"o":"m 242 157 l 815 157 q 872 134 849 157 q 894 78 894 111 q 872 23 894 46 q 815 0 849 0 l 163 0 q 108 23 131 0 q 85 78 85 46 l 85 486 q 108 541 85 518 q 163 564 131 564 l 653 564 q 708 541 685 564 q 731 486 731 518 q 708 431 731 454 q 653 408 685 408 l 242 408 l 242 157 m 242 815 l 242 731 q 219 676 242 699 q 163 653 196 653 q 108 676 131 653 q 85 731 85 699 l 85 894 q 108 949 85 926 q 163 972 131 972 l 815 972 q 872 949 849 972 q 894 894 894 926 q 872 838 894 861 q 815 815 849 815 l 242 815 z "},"ê":{"ha":932,"x_min":85,"x_max":894,"o":"m 242 157 l 815 157 q 872 134 849 157 q 894 78 894 111 q 872 23 894 46 q 815 0 849 0 l 163 0 q 108 23 131 0 q 85 78 85 46 l 85 486 q 108 541 85 518 q 163 564 131 564 l 653 564 q 708 541 685 564 q 731 486 731 518 q 708 431 731 454 q 653 408 685 408 l 242 408 l 242 157 m 242 815 l 242 731 q 219 676 242 699 q 163 653 196 653 q 108 676 131 653 q 85 731 85 699 l 85 894 q 108 949 85 926 q 163 972 131 972 l 815 972 q 872 949 849 972 q 894 894 894 926 q 872 838 894 861 q 815 815 849 815 l 242 815 z "},"ë":{"ha":932,"x_min":85,"x_max":894,"o":"m 242 157 l 815 157 q 872 134 849 157 q 894 78 894 111 q 872 23 894 46 q 815 0 849 0 l 163 0 q 108 23 131 0 q 85 78 85 46 l 85 486 q 108 541 85 518 q 163 564 131 564 l 653 564 q 708 541 685 564 q 731 486 731 518 q 708 431 731 454 q 653 408 685 408 l 242 408 l 242 157 m 242 815 l 242 731 q 219 676 242 699 q 163 653 196 653 q 108 676 131 653 q 85 731 85 699 l 85 894 q 108 949 85 926 q 163 972 131 972 l 815 972 q 872 949 849 972 q 894 894 894 926 q 872 838 894 861 q 815 815 849 815 l 242 815 z "},"f":{"ha":910,"x_min":85,"x_max":894,"o":"m 242 408 l 242 78 q 219 23 242 46 q 163 0 196 0 q 108 23 131 0 q 85 78 85 46 l 85 486 q 108 541 85 518 q 163 564 131 564 l 653 564 q 708 541 685 564 q 731 486 731 518 q 708 431 731 454 q 653 408 685 408 l 242 408 m 242 815 l 242 731 q 219 676 242 699 q 163 653 196 653 q 108 676 131 653 q 85 731 85 699 l 85 894 q 108 949 85 926 q 163 972 131 972 l 815 972 q 872 949 849 972 q 894 894 894 926 q 872 838 894 861 q 815 815 849 815 l 242 815 z "},"g":{"ha":1060,"x_min":26,"x_max":1022,"o":"m 740 746 q 536 815 650 817 q 480 838 503 815 q 457 894 457 861 q 480 949 457 926 q 536 972 503 972 q 836 868 704 972 q 866 815 863 847 q 849 758 869 783 q 797 729 829 733 q 740 746 765 725 m 218 854 q 276 873 243 875 q 329 847 308 871 q 348 790 350 822 q 321 736 346 757 q 215 563 240 667 q 231 360 190 458 q 363 205 272 261 q 561 157 454 149 q 749 235 668 165 q 856 408 831 304 l 536 408 q 480 431 503 408 q 457 486 457 454 q 480 541 457 518 q 536 564 503 564 l 943 564 q 999 541 976 564 q 1022 486 1022 518 q 918 185 1022 318 q 650 13 814 53 q 333 44 486 -26 q 103 264 181 114 q 59 579 26 414 q 218 854 92 744 z "},"h":{"ha":993,"x_min":89,"x_max":899,"o":"m 89 738 l 89 894 q 112 949 89 926 q 167 972 135 972 q 223 949 200 972 q 246 894 246 926 l 246 738 q 223 681 246 704 q 167 658 200 658 q 112 681 135 658 q 89 738 89 704 m 167 564 l 742 564 l 742 894 q 765 949 742 926 q 820 972 788 972 q 876 949 853 972 q 899 894 899 926 l 899 78 q 876 23 899 46 q 820 0 853 0 q 765 23 788 0 q 742 78 742 46 l 742 408 l 246 408 l 246 78 q 223 23 246 46 q 167 0 200 0 q 112 23 135 0 q 89 78 89 46 l 89 486 q 112 541 89 518 q 167 564 135 564 z "},"i":{"ha":346,"x_min":94,"x_max":251,"o":"m 94 78 l 94 894 q 117 949 94 926 q 173 972 140 972 q 228 949 206 972 q 251 894 251 926 l 251 78 q 228 23 251 46 q 173 0 206 0 q 117 23 140 0 q 94 78 94 46 z "},"ì":{"ha":346,"x_min":94,"x_max":251,"o":"m 94 78 l 94 894 q 117 949 94 926 q 173 972 140 972 q 228 949 206 972 q 251 894 251 926 l 251 78 q 228 23 251 46 q 173 0 206 0 q 117 23 140 0 q 94 78 94 46 z "},"í":{"ha":346,"x_min":94,"x_max":251,"o":"m 94 78 l 94 894 q 117 949 94 926 q 173 972 140 972 q 228 949 206 972 q 251 894 251 926 l 251 78 q 228 23 251 46 q 173 0 206 0 q 117 23 140 0 q 94 78 94 46 z "},"î":{"ha":346,"x_min":94,"x_max":251,"o":"m 94 78 l 94 894 q 117 949 94 926 q 173 972 140 972 q 228 949 206 972 q 251 894 251 926 l 251 78 q 228 23 251 46 q 173 0 206 0 q 117 23 140 0 q 94 78 94 46 z "},"ï":{"ha":346,"x_min":94,"x_max":251,"o":"m 94 78 l 94 894 q 117 949 94 926 q 173 972 140 972 q 228 949 206 972 q 251 894 251 926 l 251 78 q 228 23 251 46 q 173 0 206 0 q 117 23 140 0 q 94 78 94 46 z "},"j":{"ha":690,"x_min":15,"x_max":606,"o":"m 449 324 l 449 894 q 472 949 449 926 q 527 972 494 972 q 583 949 560 972 q 606 894 606 926 l 606 324 q 566 168 606 240 q 457 51 526 96 q 305 1 388 7 q 147 31 222 -4 q 36 114 83 60 q 18 171 15 139 q 45 224 21 203 q 102 242 69 244 q 156 215 135 240 q 213 172 179 188 q 294 157 251 154 q 372 183 336 160 q 428 243 407 206 q 449 324 449 281 z "},"k":{"ha":936,"x_min":82,"x_max":906,"o":"m 85 404 l 85 894 q 108 949 85 926 q 163 972 131 972 q 219 949 196 972 q 242 894 242 926 l 242 404 q 219 349 242 372 q 163 326 196 326 q 108 349 131 326 q 85 404 85 372 m 881 122 q 892 63 899 94 q 858 14 885 32 q 800 2 832 -4 q 750 35 768 8 l 513 392 l 224 29 q 172 2 204 6 q 115 18 140 -1 q 86 69 90 38 q 103 126 82 101 l 453 565 q 463 578 457 572 l 754 943 q 827 972 782 978 q 889 923 872 965 q 876 846 906 881 l 615 519 l 881 122 z "},"l":{"ha":821,"x_min":85,"x_max":813,"o":"m 85 324 l 85 894 q 108 949 85 926 q 163 972 131 972 q 219 949 196 972 q 242 894 242 926 l 242 324 q 219 267 242 290 q 163 244 196 244 q 108 267 131 244 q 85 324 85 290 m 733 0 l 163 0 q 108 23 131 0 q 85 78 85 46 q 108 134 85 111 q 163 157 131 157 l 733 157 q 790 134 767 157 q 813 78 813 111 q 790 23 813 46 q 733 0 767 0 z "},"m":{"ha":1147,"x_min":75,"x_max":1053,"o":"m 238 486 l 238 78 q 215 23 238 46 q 159 0 192 0 q 103 23 126 0 q 81 78 81 46 l 81 486 q 103 541 81 518 q 159 564 126 564 q 215 541 192 564 q 238 486 238 518 m 93 853 q 83 912 75 881 q 117 960 90 943 q 176 970 144 978 q 225 935 208 963 l 567 389 l 906 932 q 943 966 918 956 q 994 970 968 976 q 1036 942 1019 964 q 1053 894 1053 921 l 1053 78 q 1030 23 1053 46 q 974 0 1007 0 q 919 23 942 0 q 896 78 896 46 l 896 621 l 633 201 q 567 163 611 164 q 500 200 524 163 l 93 853 z "},"n":{"ha":983,"x_min":67,"x_max":889,"o":"m 236 492 l 236 78 q 213 23 236 46 q 158 0 190 0 q 102 23 125 0 q 79 78 79 46 l 79 492 q 102 548 79 525 q 158 571 125 571 q 213 548 190 571 q 236 492 236 525 m 97 846 q 85 923 68 881 q 146 972 101 965 q 218 943 190 978 l 732 301 l 732 894 q 755 949 732 926 q 810 972 778 972 q 866 949 843 972 q 889 894 889 926 l 889 78 l 888 78 q 874 33 888 54 q 836 5 860 13 q 789 3 813 -3 q 749 29 765 10 l 97 846 z "},"ñ":{"ha":983,"x_min":67,"x_max":889,"o":"m 236 492 l 236 78 q 213 23 236 46 q 158 0 190 0 q 102 23 125 0 q 79 78 79 46 l 79 492 q 102 548 79 525 q 158 571 125 571 q 213 548 190 571 q 236 492 236 525 m 97 846 q 85 923 68 881 q 146 972 101 965 q 218 943 190 978 l 732 301 l 732 894 q 755 949 732 926 q 810 972 778 972 q 866 949 843 972 q 889 894 889 926 l 889 78 l 888 78 q 874 33 888 54 q 836 5 860 13 q 789 3 813 -3 q 749 29 765 10 l 97 846 z "},"o":{"ha":1074,"x_min":28,"x_max":1047,"o":"m 822 322 q 852 373 822 322 q 861 543 882 425 q 748 738 840 661 q 536 815 656 815 q 481 838 504 815 q 458 894 458 861 q 481 949 458 926 q 536 972 504 972 q 849 859 713 972 q 1016 572 985 746 q 960 245 1047 399 q 706 30 872 92 q 374 27 540 -32 q 117 238 207 86 q 56 565 28 390 q 219 854 85 739 q 276 873 243 875 q 329 847 308 871 q 348 790 350 822 q 321 736 346 757 q 210 540 231 658 q 251 319 190 422 q 425 175 313 215 q 650 176 538 135 q 822 322 763 218 z "},"ò":{"ha":1074,"x_min":28,"x_max":1047,"o":"m 822 322 q 852 373 822 322 q 861 543 882 425 q 748 738 840 661 q 536 815 656 815 q 481 838 504 815 q 458 894 458 861 q 481 949 458 926 q 536 972 504 972 q 849 859 713 972 q 1016 572 985 746 q 960 245 1047 399 q 706 30 872 92 q 374 27 540 -32 q 117 238 207 86 q 56 565 28 390 q 219 854 85 739 q 276 873 243 875 q 329 847 308 871 q 348 790 350 822 q 321 736 346 757 q 210 540 231 658 q 251 319 190 422 q 425 175 313 215 q 650 176 538 135 q 822 322 763 218 z "},"ó":{"ha":1074,"x_min":28,"x_max":1047,"o":"m 822 322 q 852 373 822 322 q 861 543 882 425 q 748 738 840 661 q 536 815 656 815 q 481 838 504 815 q 458 894 458 861 q 481 949 458 926 q 536 972 504 972 q 849 859 713 972 q 1016 572 985 746 q 960 245 1047 399 q 706 30 872 92 q 374 27 540 -32 q 117 238 207 86 q 56 565 28 390 q 219 854 85 739 q 276 873 243 875 q 329 847 308 871 q 348 790 350 822 q 321 736 346 757 q 210 540 231 658 q 251 319 190 422 q 425 175 313 215 q 650 176 538 135 q 822 322 763 218 z "},"ô":{"ha":1074,"x_min":28,"x_max":1047,"o":"m 822 322 q 852 373 822 322 q 861 543 882 425 q 748 738 840 661 q 536 815 656 815 q 481 838 504 815 q 458 894 458 861 q 481 949 458 926 q 536 972 504 972 q 849 859 713 972 q 1016 572 985 746 q 960 245 1047 399 q 706 30 872 92 q 374 27 540 -32 q 117 238 207 86 q 56 565 28 390 q 219 854 85 739 q 276 873 243 875 q 329 847 308 871 q 348 790 350 822 q 321 736 346 757 q 210 540 231 658 q 251 319 190 422 q 425 175 313 215 q 650 176 538 135 q 822 322 763 218 z "},"õ":{"ha":1074,"x_min":28,"x_max":1047,"o":"m 822 322 q 852 373 822 322 q 861 543 882 425 q 748 738 840 661 q 536 815 656 815 q 481 838 504 815 q 458 894 458 861 q 481 949 458 926 q 536 972 504 972 q 849 859 713 972 q 1016 572 985 746 q 960 245 1047 399 q 706 30 872 92 q 374 27 540 -32 q 117 238 207 86 q 56 565 28 390 q 219 854 85 739 q 276 873 243 875 q 329 847 308 871 q 348 790 350 822 q 321 736 346 757 q 210 540 231 658 q 251 319 190 422 q 425 175 313 215 q 650 176 538 135 q 822 322 763 218 z "},"ö":{"ha":1074,"x_min":28,"x_max":1047,"o":"m 822 322 q 852 373 822 322 q 861 543 882 425 q 748 738 840 661 q 536 815 656 815 q 481 838 504 815 q 458 894 458 861 q 481 949 458 926 q 536 972 504 972 q 849 859 713 972 q 1016 572 985 746 q 960 245 1047 399 q 706 30 872 92 q 374 27 540 -32 q 117 238 207 86 q 56 565 28 390 q 219 854 85 739 q 276 873 243 875 q 329 847 308 871 q 348 790 350 822 q 321 736 346 757 q 210 540 231 658 q 251 319 190 422 q 425 175 313 215 q 650 176 538 135 q 822 322 763 218 z "},"ø":{"ha":1074,"x_min":28,"x_max":1047,"o":"m 822 322 q 852 373 822 322 q 861 543 882 425 q 748 738 840 661 q 536 815 656 815 q 481 838 504 815 q 458 894 458 861 q 481 949 458 926 q 536 972 504 972 q 849 859 713 972 q 1016 572 985 746 q 960 245 1047 399 q 706 30 872 92 q 374 27 540 -32 q 117 238 207 86 q 56 565 28 390 q 219 854 85 739 q 276 873 243 875 q 329 847 308 871 q 348 790 350 822 q 321 736 346 757 q 210 540 231 658 q 251 319 190 422 q 425 175 313 215 q 650 176 538 135 q 822 322 763 218 z "},"p":{"ha":932,"x_min":83,"x_max":918,"o":"m 571 815 l 163 815 q 108 838 131 815 q 85 894 85 861 q 108 949 85 926 q 163 972 131 972 l 571 972 q 756 919 681 972 q 865 778 831 865 q 865 521 917 649 q 756 380 831 433 q 571 326 681 326 l 242 326 l 242 78 q 219 23 242 46 q 163 0 196 0 q 108 23 131 0 q 85 78 85 46 l 85 568 q 108 623 85 600 q 163 646 131 646 q 219 623 196 646 q 242 568 242 600 l 242 483 l 571 483 q 665 509 626 483 q 721 578 704 535 q 721 721 747 649 q 665 790 704 764 q 571 815 626 815 z "},"q":{"ha":1088,"x_min":35,"x_max":1032,"o":"m 536 815 q 481 838 504 815 q 458 894 458 861 q 481 949 458 926 q 536 972 504 972 q 790 901 674 972 q 969 708 907 829 q 1021 450 1031 586 q 931 203 1011 314 l 1000 133 q 1020 58 1032 101 q 965 2 1008 14 q 889 24 921 -10 l 819 92 q 592 3 717 17 q 350 37 467 -11 q 154 185 233 85 q 56 410 75 286 q 79 653 36 535 q 219 854 122 771 q 276 873 243 875 q 329 847 308 871 q 348 790 350 822 q 321 736 346 757 q 210 540 231 658 q 251 319 190 422 q 425 175 313 215 q 650 176 538 135 q 822 322 763 218 q 861 544 882 426 q 748 738 840 661 q 536 815 656 815 z "},"r":{"ha":943,"x_min":83,"x_max":918,"o":"m 571 815 l 163 815 q 108 838 131 815 q 85 894 85 861 q 108 949 85 926 q 163 972 131 972 l 571 972 q 756 919 681 972 q 865 778 831 865 q 865 521 917 649 q 796 414 843 460 q 688 346 749 368 l 804 113 q 808 54 818 85 q 769 10 797 24 q 710 6 740 -4 q 664 43 679 15 l 522 326 l 242 326 l 242 78 q 219 23 242 46 q 163 0 196 0 q 108 23 131 0 q 85 78 85 46 l 85 568 q 108 623 85 600 q 163 646 131 646 q 219 623 196 646 q 242 568 242 600 l 242 483 l 571 483 q 665 509 626 483 q 721 578 704 535 q 721 721 747 649 q 665 790 704 764 q 571 815 626 815 z "},"s":{"ha":943,"x_min":46,"x_max":897,"o":"m 349 564 q 405 541 382 564 q 428 486 428 518 q 405 431 428 454 q 349 408 382 408 q 188 455 253 408 q 92 578 122 501 q 92 803 46 690 q 188 925 122 878 q 349 972 253 972 l 593 972 q 792 890 710 972 q 876 690 875 807 q 853 634 876 657 q 798 611 831 611 q 742 634 765 611 q 719 690 719 657 q 683 778 719 742 q 593 815 646 815 l 349 815 q 281 799 313 818 q 236 744 250 779 q 236 635 215 690 q 281 582 250 601 q 349 564 313 563 m 593 408 q 538 431 561 408 q 515 486 515 454 q 538 541 515 518 q 593 564 561 564 q 755 517 689 564 q 851 394 821 471 q 851 169 896 282 q 755 47 821 94 q 593 0 689 0 l 349 0 q 149 83 232 0 q 67 282 67 165 q 90 338 67 315 q 145 361 113 361 q 201 338 178 361 q 224 282 224 315 q 260 194 224 231 q 349 157 297 157 l 593 157 q 662 174 631 154 q 707 228 693 193 q 707 338 726 282 q 662 390 693 371 q 593 408 631 410 z "},"t":{"ha":826,"x_min":8,"x_max":818,"o":"m 739 815 l 86 815 q 31 838 54 815 q 8 894 8 861 q 31 949 8 926 q 86 972 54 972 l 739 972 q 795 949 772 972 q 818 894 818 926 q 795 838 818 861 q 739 815 772 815 m 492 649 l 492 78 q 469 23 492 46 q 413 0 446 0 q 358 23 381 0 q 335 78 335 46 l 335 649 q 358 705 335 682 q 413 728 381 728 q 469 705 446 728 q 492 649 492 682 z "},"u":{"ha":817,"x_min":85,"x_max":732,"o":"m 574 324 l 574 894 q 597 949 574 926 q 652 972 619 972 q 708 949 685 972 q 731 894 731 926 l 731 324 q 636 94 731 189 q 408 0 542 0 q 179 94 274 0 q 85 324 85 189 l 85 894 q 108 949 85 926 q 163 972 131 972 q 219 949 196 972 q 242 894 242 926 l 242 324 q 290 206 242 254 q 408 157 339 157 q 525 206 476 157 q 574 324 574 254 z "},"ù":{"ha":817,"x_min":85,"x_max":732,"o":"m 574 324 l 574 894 q 597 949 574 926 q 652 972 619 972 q 708 949 685 972 q 731 894 731 926 l 731 324 q 636 94 731 189 q 408 0 542 0 q 179 94 274 0 q 85 324 85 189 l 85 894 q 108 949 85 926 q 163 972 131 972 q 219 949 196 972 q 242 894 242 926 l 242 324 q 290 206 242 254 q 408 157 339 157 q 525 206 476 157 q 574 324 574 254 z "},"ú":{"ha":817,"x_min":85,"x_max":732,"o":"m 574 324 l 574 894 q 597 949 574 926 q 652 972 619 972 q 708 949 685 972 q 731 894 731 926 l 731 324 q 636 94 731 189 q 408 0 542 0 q 179 94 274 0 q 85 324 85 189 l 85 894 q 108 949 85 926 q 163 972 131 972 q 219 949 196 972 q 242 894 242 926 l 242 324 q 290 206 242 254 q 408 157 339 157 q 525 206 476 157 q 574 324 574 254 z "},"û":{"ha":817,"x_min":85,"x_max":732,"o":"m 574 324 l 574 894 q 597 949 574 926 q 652 972 619 972 q 708 949 685 972 q 731 894 731 926 l 731 324 q 636 94 731 189 q 408 0 542 0 q 179 94 274 0 q 85 324 85 189 l 85 894 q 108 949 85 926 q 163 972 131 972 q 219 949 196 972 q 242 894 242 926 l 242 324 q 290 206 242 254 q 408 157 339 157 q 525 206 476 157 q 574 324 574 254 z "},"ü":{"ha":817,"x_min":85,"x_max":732,"o":"m 574 324 l 574 894 q 597 949 574 926 q 652 972 619 972 q 708 949 685 972 q 731 894 731 926 l 731 324 q 636 94 731 189 q 408 0 542 0 q 179 94 274 0 q 85 324 85 189 l 85 894 q 108 949 85 926 q 163 972 131 972 q 219 949 196 972 q 242 894 242 926 l 242 324 q 290 206 242 254 q 408 157 339 157 q 525 206 476 157 q 574 324 574 254 z "},"v":{"ha":1013,"x_min":7,"x_max":1004,"o":"m 272 369 l 28 860 q 32 938 7 900 q 102 972 57 975 q 168 929 147 969 l 413 439 q 416 381 426 411 q 377 335 406 350 q 318 331 349 321 q 272 369 288 342 m 575 43 q 531 6 561 15 q 472 10 500 -4 q 433 54 443 24 q 436 113 422 85 l 843 929 q 909 972 864 969 q 979 938 954 975 q 983 860 1004 900 l 575 43 z "},"w":{"ha":1054,"x_min":29,"x_max":1019,"o":"m 121 471 l 39 879 q 64 954 29 924 q 142 969 99 985 q 193 910 185 954 l 275 501 q 250 426 285 457 q 172 410 215 396 q 121 471 129 425 m 353 51 q 312 8 342 21 q 252 6 282 -6 q 208 46 222 17 q 206 106 194 75 l 451 758 q 480 794 460 781 q 524 808 500 808 q 569 794 549 808 q 597 758 589 781 l 746 363 l 856 910 q 906 969 863 954 q 984 954 950 985 q 1008 879 1018 924 l 846 63 l 844 63 q 821 20 840 38 q 775 1 801 3 q 726 13 749 -1 q 696 51 704 26 l 524 508 l 353 51 z "},"x":{"ha":811,"x_min":36,"x_max":774,"o":"m 310 486 l 56 849 q 43 908 38 876 q 75 958 49 939 q 133 971 101 976 q 183 939 165 965 l 406 622 l 626 939 q 677 971 646 965 q 735 958 708 976 q 767 908 761 939 q 754 849 774 876 l 500 486 l 754 124 q 767 65 774 96 q 735 15 761 33 q 677 1 708 -4 q 626 33 646 7 l 406 350 l 183 33 q 133 1 165 7 q 75 15 101 -4 q 43 65 49 33 q 56 124 38 96 l 310 486 z "},"y":{"ha":768,"x_min":7,"x_max":760,"o":"m 192 533 l 28 860 q 32 938 7 900 q 102 972 57 975 q 168 929 147 969 l 331 603 q 334 543 344 574 q 295 499 324 513 q 236 494 267 485 q 192 533 206 504 m 461 306 l 461 78 q 438 23 461 46 q 383 0 415 0 q 328 23 351 0 q 306 78 306 46 l 306 324 q 317 364 306 346 l 599 929 q 665 972 619 969 q 735 938 710 975 q 739 860 760 900 l 461 306 z "},"ý":{"ha":768,"x_min":7,"x_max":760,"o":"m 192 533 l 28 860 q 32 938 7 900 q 102 972 57 975 q 168 929 147 969 l 331 603 q 334 543 344 574 q 295 499 324 513 q 236 494 267 485 q 192 533 206 504 m 461 306 l 461 78 q 438 23 461 46 q 383 0 415 0 q 328 23 351 0 q 306 78 306 46 l 306 324 q 317 364 306 346 l 599 929 q 665 972 619 969 q 735 938 710 975 q 739 860 760 900 l 461 306 z "},"ÿ":{"ha":768,"x_min":7,"x_max":760,"o":"m 192 533 l 28 860 q 32 938 7 900 q 102 972 57 975 q 168 929 147 969 l 331 603 q 334 543 344 574 q 295 499 324 513 q 236 494 267 485 q 192 533 206 504 m 461 306 l 461 78 q 438 23 461 46 q 383 0 415 0 q 328 23 351 0 q 306 78 306 46 l 306 324 q 317 364 306 346 l 599 929 q 665 972 619 969 q 735 938 710 975 q 739 860 760 900 l 461 306 z "},"z":{"ha":800,"x_min":19,"x_max":761,"o":"m 682 815 l 111 815 q 56 838 79 815 q 33 894 33 861 q 56 949 33 926 q 111 972 79 972 l 682 972 q 738 949 715 972 q 761 894 761 926 q 738 838 761 861 q 682 815 715 815 m 51 128 l 540 729 q 593 758 561 756 q 650 741 625 761 q 678 689 675 721 q 661 632 682 657 l 276 157 l 682 157 q 738 134 715 157 q 761 78 761 111 q 738 23 761 46 q 682 0 715 0 l 111 0 q 41 44 63 0 q 51 128 19 89 z "},"{":{"ha":453,"x_min":96,"x_max":379,"o":"m 319 58 q 360 41 343 58 q 378 -1 378 24 q 360 -42 378 -25 q 319 -58 343 -58 l 238 -58 q 138 -17 179 -58 q 97 82 97 24 l 97 408 q 124 489 97 453 q 97 571 97 526 l 97 897 q 138 997 97 956 q 238 1038 179 1038 l 319 1038 q 360 1020 343 1038 q 378 978 378 1003 q 360 937 378 954 q 319 919 343 919 l 238 919 q 222 913 228 919 q 215 897 215 907 l 215 571 q 222 555 215 561 q 238 549 228 549 q 279 531 263 549 q 296 490 296 514 q 279 448 296 465 q 238 431 263 431 q 222 424 228 431 q 215 408 215 417 l 215 82 q 222 65 215 72 q 238 58 228 58 l 319 58 z "},"|":{"ha":313,"x_min":97,"x_max":215,"o":"m 115 1087 q 123 1095 115 1087 q 156 1104 132 1104 q 198 1087 181 1104 q 215 1044 215 1069 l 215 -67 q 198 -108 215 -90 q 156 -125 181 -125 q 115 -108 132 -125 q 97 -67 97 -90 l 97 1044 q 115 1087 97 1069 z "},"}":{"ha":453,"x_min":74,"x_max":356,"o":"m 354 897 l 354 571 q 328 489 354 526 q 354 408 354 453 l 354 82 q 313 -17 354 24 q 214 -58 272 -58 l 132 -58 q 91 -42 108 -58 q 74 -1 74 -25 q 91 41 74 24 q 132 58 108 58 l 214 58 q 230 65 224 58 q 236 82 236 72 l 236 408 q 230 424 236 417 q 214 431 224 431 q 172 448 189 431 q 156 490 156 465 q 172 531 156 514 q 214 549 189 549 q 230 555 224 549 q 236 571 236 561 l 236 897 q 230 913 236 907 q 214 919 224 919 l 132 919 q 91 937 108 919 q 74 978 74 954 q 91 1020 74 1003 q 132 1038 108 1038 l 214 1038 q 313 997 272 1038 q 354 897 354 956 z "},"~":{"ha":726,"x_min":54,"x_max":671,"o":"m 626 545 q 637 541 626 545 q 660 516 649 538 q 663 471 671 494 q 633 438 656 447 q 532 410 586 414 q 444 411 478 406 q 349 432 410 417 q 276 449 301 444 q 212 453 250 454 q 144 438 174 451 q 99 434 122 426 q 66 463 76 442 q 63 508 56 485 q 92 542 71 531 q 193 569 139 565 q 281 567 247 574 q 378 546 315 561 q 451 530 425 535 q 515 526 476 525 q 582 542 553 528 q 626 545 603 553 z "}," ":{"ha":471,"x_min":0,"x_max":0,"o":""},"­":{"ha":0,"x_min":0,"x_max":0,"o":""}}}
